<svg width="81" height="72" viewBox="0 0 81 72" version="1.1" xmlns="http://www.w3.org/2000/svg" xmlns:xlink="http://www.w3.org/1999/xlink" xmlns:figma="http://www.figma.com/figma/ns">
<title>Baixe_icon</title>
<desc>Created using Figma</desc>
<g id="Canvas" transform="translate(-7381 63)" figma:type="canvas">
<g id="Baixe_icon" style="mix-blend-mode:normal;" figma:type="frame">
<g id="XMLID 17" style="mix-blend-mode:normal;" figma:type="frame">
<g id="XMLID 40" style="mix-blend-mode:normal;" figma:type="vector">
<use xlink:href="#path0_fill" transform="translate(7382.35 -47.4761)" fill="#FFFFFF" style="mix-blend-mode:normal;"/>
</g>
<g id="XMLID 35" style="mix-blend-mode:normal;" figma:type="frame">
<g id="XMLID 39" style="mix-blend-mode:normal;" figma:type="vector">
<use xlink:href="#path1_fill" transform="translate(7381 -48.9985)" fill="#00C0F3" style="mix-blend-mode:normal;"/>
</g>
</g>
</g>
<g id="Rectangle 12" style="mix-blend-mode:normal;" figma:type="vector">
<use xlink:href="#path2_fill" transform="translate(7415.17 -42.5711)" fill="#FFFFFF" style="mix-blend-mode:normal;"/>
</g>
<g id="XMLID 15" style="mix-blend-mode:normal;" figma:type="frame">
<g id="XMLID 16" style="mix-blend-mode:normal;" opacity="0.2" figma:type="vector">
<use xlink:href="#path3_fill" transform="translate(7407.11 -63)" fill="#00C0F3" style="mix-blend-mode:normal;"/>
</g>
</g>
</g>
</g>
<defs>
<path id="path0_fill" d="M 0.176895 31.4936C 0.0303715 37.4764 -0.4092 45.4291 1.05604 51.2659C 2.0817 55.4246 7.79613 55.2058 11.2394 55.0598C 13.4373 54.9869 22.4485 54.841 24.7196 55.0598C 30.5073 55.5706 36.295 54.6221 42.0094 54.9139C 47.8704 55.2058 70.2885 54.768 72.1933 54.6221C 73.6585 54.5491 75.3436 54.4032 76.1494 53.0899C 76.9553 51.8496 76.7355 50.0985 76.7355 48.7123C 76.8088 44.8454 77.3216 40.9055 77.3216 37.0386C 77.3216 35.3605 77.3216 20.8414 77.1751 17.4852C 77.0286 14.9316 77.2484 11.5024 75.4901 9.24067C 73.8783 7.19777 68.0174 7.19777 63.3286 7.19777C 53.658 7.27073 48.2367 8.00034 38.6394 7.48961C 36.8811 7.41665 30.8736 7.48961 29.1886 7.48961C 27.7966 7.48961 25.4522 6.97889 25.4522 4.71712C 25.4522 0.996133 23.9137 0.0476476 20.1774 0.0476476C 17.2469 0.0476476 13.071 -0.098273 9.99398 0.120608C 6.77046 0.266529 2.44801 -0.608996 1.1293 3.11199C 0.103633 6.03041 0.250157 11.5754 0.250157 14.6397C 0.396681 18.7985 0.323419 26.3134 0.176895 31.4936Z"/>
<path id="path1_fill" d="M 0.211147 33.016C 0.0646229 38.634 -0.301686 44.3249 0.504194 49.8699C 1.01703 53.7368 2.11595 56.5823 6.21862 57.5308C 9.58866 58.3333 13.2518 57.8226 16.6951 57.7496C 20.7977 57.6767 24.9004 57.8956 29.003 57.9685C 34.5709 58.1144 40.2121 57.6767 45.78 57.7496C 49.3698 57.8226 52.9597 57.7496 56.6228 57.7496C 62.557 57.6767 68.9307 58.1874 74.865 57.3119C 80.2131 56.5093 79.4072 51.7669 79.5537 47.5352C 79.7735 43.3035 80.0666 39.0718 80.0666 34.8401C 80.0666 30.9732 80.0665 27.0333 79.9933 23.1664C 79.92 19.5913 80.3596 15.5785 79.1874 12.2223C 77.7954 8.28245 74.1323 7.69877 70.396 7.40693C 64.4618 7.04212 58.381 7.47989 52.4468 7.69877C 47.3185 7.84469 42.2634 7.62581 37.1351 7.62581C 35.2303 7.62581 33.3255 7.69877 31.4207 7.62581C 28.2704 7.55285 28.7833 4.92627 27.6111 2.81042C 25.633 -0.910565 19.479 0.183842 16.0357 0.183842C 12.2261 0.183842 5.85231 -0.837605 2.84857 1.93489C -0.374948 4.85331 0.35767 11.4927 0.35767 15.3596C 0.35767 21.1965 0.35767 27.1062 0.211147 33.016C 0.137885 34.7671 2.84857 34.7671 2.92183 33.016C 3.06836 28.6384 3.06836 24.1878 3.06836 19.8102C 3.06836 15.5055 2.62879 10.8361 3.50793 6.60436C 4.46033 1.71601 10.9074 2.88338 14.7903 2.88338C 17.0614 2.88338 19.3325 2.81042 21.6036 2.95634C 22.6293 3.0293 24.0945 2.88338 24.9004 3.68594C 25.9261 4.70739 25.1934 6.31252 25.7063 7.47989C 26.6587 9.74166 28.7833 10.2524 31.0544 10.3253C 34.4977 10.3983 38.0143 10.2524 41.4576 10.3983C 51.4212 10.6901 61.5313 9.15798 71.4217 10.1794C 75.0847 10.5442 76.7698 12.0034 77.0628 15.7974C 77.2093 17.2566 77.2093 18.7888 77.2093 20.248C 77.2826 23.5312 77.2826 26.8874 77.2826 30.1706C 77.2826 32.7972 77.2826 35.3508 77.2826 37.9774C 77.2826 39.8743 77.2093 41.7713 77.0628 43.6683C 76.9895 44.9816 76.843 46.2949 76.7698 47.5352C 76.6965 48.9944 77.2093 51.8398 76.55 53.1531C 75.5976 55.269 71.788 54.8312 69.8099 54.9042C 66.6596 54.9771 63.4361 55.0501 60.2859 55.0501C 54.1319 55.1231 47.9779 55.1231 41.8239 54.9771C 36.0362 54.8312 30.2485 55.269 24.4608 55.0501C 20.7977 54.9042 17.0614 54.9771 13.3983 55.1231C 11.7865 55.196 10.1015 55.3419 8.48973 55.196C 5.11969 54.9042 3.65445 53.5909 3.14162 50.2347C 2.33574 44.6168 2.70205 38.7799 2.92183 33.016C 2.92183 31.338 0.284408 31.338 0.211147 33.016Z"/>
<path id="path2_fill" d="M 0 0L 24.1764 0L 24.1764 5.10723L 0 5.10723L 0 0Z"/>
<path id="path3_fill" d="M 32.2791 28.2475C 32.2791 22.1771 32.2791 16.1067 32.2791 10.0363C 32.2791 6.18077 33.6043 0.356471 28.8189 0.274439C 22.9292 0.192406 16.7449 -0.299788 10.9288 0.274439C 6.51152 0.684601 7.98396 7.57532 7.98396 11.1848C 7.98396 15.0403 7.98396 18.9778 7.98396 22.8334C 7.98396 24.1459 7.91033 25.4584 7.98396 26.7709C 8.05758 27.8373 8.05758 27.9194 7.83671 28.0834C 5.7753 29.2319 2.3887 26.7709 0.62178 28.9858C -0.997898 30.9546 0.916266 32.7593 2.16784 34.1538C 5.92255 38.2554 9.75088 42.3571 13.5056 46.4587C 15.1253 48.1814 16.8186 50.8884 18.7327 52.1189C 20.9414 53.5135 22.4874 51.0525 23.9599 49.4939C 28.3772 44.736 32.7945 39.8961 37.2118 35.1382C 38.537 33.6616 41.5555 31.3647 39.7149 28.9858C 38.3161 27.2631 32.6472 29.0678 32.2791 28.0014"/>
</defs>
</svg>
