<?xml version="1.0" encoding="utf-8"?>
<!-- Generator: Adobe Illustrator 21.0.0, SVG Export Plug-In . SVG Version: 6.00 Build 0)  -->
<svg version="1.1" id="Layer_1" xmlns="http://www.w3.org/2000/svg" xmlns:xlink="http://www.w3.org/1999/xlink" x="0px" y="0px"
	 viewBox="0 0 438 307" style="enable-background:new 0 0 438 307;" xml:space="preserve">
<style type="text/css">
	.st0{fill:none;stroke:#B3ECFB;stroke-width:3;stroke-miterlimit:10;}
	.st1{fill:none;stroke:#D9F6FD;stroke-width:3;stroke-miterlimit:10;}
	.st2{fill:#D9F6FD;}
	.st3{fill:none;stroke:#B3ECFB;stroke-width:2.1213;stroke-miterlimit:10;}
	.st4{fill:#B3ECFB;}
	.st5{fill:#4F3F70;}
	.st6{fill:#FFFFFF;}
</style>
<g>
	<path class="st0" d="M412.6,292.5H25.4c-4.7,0-8.4-3.8-8.4-8.4V22.9c0-4.7,3.8-8.4,8.4-8.4h387.2c4.7,0,8.4,3.8,8.4,8.4v261.2
		C421,288.7,417.2,292.5,412.6,292.5z"/>
	<path class="st1" d="M191.1,209.5h-87.7c-4.7,0-8.4-3.8-8.4-8.4V58.4c0-4.7,3.8-8.4,8.4-8.4h87.7c4.7,0,8.4,3.8,8.4,8.4v142.7
		C199.5,205.7,195.7,209.5,191.1,209.5z"/>
	<path class="st1" d="M335.1,98.5h-87.7c-4.7,0-8.4-3.8-8.4-8.4V58.4c0-4.7,3.8-8.4,8.4-8.4h87.7c4.7,0,8.4,3.8,8.4,8.4v31.7
		C343.5,94.7,339.7,98.5,335.1,98.5z"/>
	<path class="st2" d="M76.1,255.5H44.4c-4.7,0-8.4-3.8-8.4-8.4V58.4c0-4.7,3.8-8.4,8.4-8.4h31.7c4.7,0,8.4,3.8,8.4,8.4v188.7
		C84.5,251.7,80.7,255.5,76.1,255.5z"/>
	<path class="st2" d="M393.1,255.5h-31.7c-4.7,0-8.4-3.8-8.4-8.4V58.4c0-4.7,3.8-8.4,8.4-8.4h31.7c4.7,0,8.4,3.8,8.4,8.4v188.7
		C401.5,251.7,397.7,255.5,393.1,255.5z"/>
	<line class="st3" x1="219" y1="14.5" x2="219" y2="292.5"/>
	<rect x="95.5" y="218.5" class="st4" width="97" height="6"/>
	<rect x="95.5" y="229.5" class="st4" width="104" height="6"/>
	<rect x="95.5" y="240.5" class="st4" width="100" height="6"/>
	<rect x="95.5" y="251.5" class="st4" width="36" height="6"/>
	<rect x="239.5" y="218.5" class="st4" width="101" height="6"/>
	<rect x="239.5" y="229.5" class="st4" width="94" height="6"/>
	<rect x="239.5" y="240.5" class="st4" width="86" height="6"/>
	<rect x="239.5" y="107" class="st4" width="101" height="6"/>
	<rect x="239.5" y="118" class="st4" width="94" height="6"/>
	<rect x="239.5" y="129" class="st4" width="100" height="6"/>
	<g>
		<path class="st5" d="M147.5,142.5L147.5,142.5c-6.9,0-12.5-5.6-12.5-12.5v0c0-6.9,5.6-12.5,12.5-12.5h0c6.9,0,12.5,5.6,12.5,12.5
			v0C160,136.9,154.4,142.5,147.5,142.5z"/>
		<g>
			<path class="st6" d="M143.9,127.7c0-0.1,0.1-0.3,0.2-0.4l3.7-2.9c0.1-0.1,0.2-0.1,0.3-0.2c0.1-0.1,0.2-0.1,0.3-0.1h1.3
				c0.1,0,0.2,0,0.3,0.1c0.1,0.1,0.1,0.2,0.1,0.3v11c0,0.1,0,0.2-0.1,0.3c-0.1,0.1-0.2,0.1-0.3,0.1h-1.4c-0.1,0-0.2,0-0.3-0.1
				c-0.1-0.1-0.1-0.2-0.1-0.3v-8.4l-2.4,1.9c-0.1,0.1-0.2,0.1-0.3,0.1c-0.1,0-0.3-0.1-0.4-0.2l-0.8-1
				C144,127.9,143.9,127.8,143.9,127.7z"/>
		</g>
	</g>
	<g>
		<path class="st1" d="M335.1,202.8h-87.7c-4.7,0-8.4-3.8-8.4-8.4v-7.7c0-4.7,3.8-8.4,8.4-8.4h87.7c4.7,0,8.4,3.8,8.4,8.4v7.7
			C343.5,199,339.7,202.8,335.1,202.8z"/>
		<path class="st4" d="M335.1,173.8h-4.5l-5.1,7.5l-5.2-7.5h-72.8c-4.7,0-8.4-3.8-8.4-8.4v-9.7c0-4.7,3.8-8.4,8.4-8.4h87.7
			c4.7,0,8.4,3.8,8.4,8.4v9.7C343.5,170,339.7,173.8,335.1,173.8z"/>
		<g>
			<path class="st5" d="M266,165.2L266,165.2c-6.9,0-12.5-5.6-12.5-12.5v0c0-6.9,5.6-12.5,12.5-12.5l0,0c6.9,0,12.5,5.6,12.5,12.5v0
				C278.5,159.7,272.9,165.2,266,165.2z"/>
			<g>
				<path class="st6" d="M267.9,150.5c0-0.5-0.2-0.9-0.5-1.2c-0.3-0.3-0.8-0.5-1.4-0.5c-0.6,0-1,0.1-1.3,0.4
					c-0.3,0.3-0.5,0.7-0.7,1.2c0,0.1-0.1,0.2-0.2,0.3c-0.1,0.1-0.2,0.1-0.3,0.1h-1.3c-0.1,0-0.2,0-0.3-0.1s-0.1-0.2-0.1-0.3
					c0-0.7,0.3-1.3,0.6-1.9c0.4-0.6,0.9-1,1.5-1.4c0.6-0.3,1.3-0.5,2.1-0.5c0.9,0,1.7,0.2,2.3,0.6s1.1,0.9,1.4,1.4
					c0.3,0.6,0.5,1.2,0.5,1.8c0,0.4,0,0.8-0.1,1.1c-0.1,0.3-0.2,0.6-0.5,1s-0.6,0.7-1.2,1.1l-3.1,2.9h4.7c0.1,0,0.2,0,0.3,0.1
					c0.1,0.1,0.1,0.2,0.1,0.3v1.2c0,0.1,0,0.2-0.1,0.3c-0.1,0.1-0.2,0.1-0.3,0.1H262c-0.1,0-0.2,0-0.3-0.1c-0.1-0.1-0.1-0.2-0.1-0.3
					v-1c0-0.3,0.2-0.6,0.5-0.8l5-4.4C267.6,151.7,267.9,151.2,267.9,150.5z"/>
			</g>
		</g>
	</g>
	<g>
		<path class="st5" d="M377.2,165.2L377.2,165.2c-6.9,0-12.5-5.6-12.5-12.5v0c0-6.9,5.6-12.5,12.5-12.5l0,0
			c6.9,0,12.5,5.6,12.5,12.5v0C389.8,159.7,384.2,165.2,377.2,165.2z"/>
		<g>
			<path class="st6" d="M381.2,147.1c0.1,0.1,0.1,0.2,0.1,0.3v1.2c0,0.1,0,0.2-0.1,0.3s-0.2,0.2-0.3,0.3l-2.5,2.6
				c1,0.1,1.8,0.5,2.5,1.1s0.9,1.4,0.9,2.3c0,0.8-0.2,1.4-0.6,2c-0.4,0.6-0.9,1-1.6,1.3c-0.7,0.3-1.5,0.4-2.4,0.4
				c-1,0-1.8-0.2-2.5-0.5c-0.7-0.3-1.2-0.7-1.6-1.2c-0.4-0.5-0.6-1-0.6-1.5c0-0.1,0-0.2,0.1-0.3s0.2-0.1,0.3-0.1h1.3
				c0.1,0,0.2,0,0.3,0.1c0.1,0.1,0.2,0.2,0.2,0.3c0.2,0.3,0.4,0.6,0.8,0.7c0.4,0.2,0.9,0.3,1.7,0.3c0.7,0,1.3-0.1,1.7-0.4
				c0.4-0.3,0.6-0.7,0.6-1.2c0-0.5-0.2-0.8-0.6-1.1s-1-0.3-1.7-0.3h-1.4c-0.1,0-0.2,0-0.3-0.1c-0.1-0.1-0.1-0.2-0.1-0.3v-1.2
				c0-0.1,0-0.2,0.1-0.3c0.1-0.1,0.2-0.2,0.3-0.3l2.4-2.5h-4.7c-0.1,0-0.2,0-0.3-0.1c-0.1-0.1-0.1-0.2-0.1-0.3v-1.2
				c0-0.1,0-0.2,0.1-0.3c0.1-0.1,0.2-0.1,0.3-0.1h7.4C381,146.9,381.1,147,381.2,147.1z"/>
		</g>
	</g>
</g>
</svg>
