<svg width="86" height="70" viewBox="0 0 86 70" version="1.1" xmlns="http://www.w3.org/2000/svg" xmlns:xlink="http://www.w3.org/1999/xlink" xmlns:figma="http://www.figma.com/figma/ns">
<title>Escolha_icon</title>
<desc>Created using Figma</desc>
<g id="Canvas" transform="translate(-6980 62)" figma:type="canvas">
<g id="Escolha_icon" style="mix-blend-mode:normal;" figma:type="frame">
<g id="XMLID 32" style="mix-blend-mode:normal;" opacity="0.7" figma:type="frame">
<g id="XMLID 135" style="mix-blend-mode:normal;" opacity="0.4" figma:type="frame">
<g id="XMLID 139" style="mix-blend-mode:normal;" figma:type="vector">
<use xlink:href="#path0_fill" transform="translate(6980 -49.2393)" fill="#00C0F3" style="mix-blend-mode:normal;"/>
</g>
</g>
</g>
<g id="XMLID 31" style="mix-blend-mode:normal;" opacity="0.4" figma:type="frame">
<g id="XMLID 129" style="mix-blend-mode:normal;isolation:isolate;" figma:type="frame">
<g id="XMLID 133" style="mix-blend-mode:normal;" figma:type="vector">
<use xlink:href="#path1_fill" transform="translate(7028.39 -49.2393)" fill="#4DD3F7" style="mix-blend-mode:normal;"/>
</g>
</g>
</g>
<g id="XMLID 15" style="mix-blend-mode:normal;" figma:type="frame">
<g id="XMLID 30" style="mix-blend-mode:normal;" figma:type="frame">
<g id="XMLID 127" style="mix-blend-mode:normal;" figma:type="vector">
<use xlink:href="#path2_fill" transform="translate(7000.2 -59.9272)" fill="#FFFFFF" style="mix-blend-mode:normal;"/>
</g>
<g id="XMLID 122" style="mix-blend-mode:normal;" figma:type="frame">
<g id="XMLID 126" style="mix-blend-mode:normal;" figma:type="vector">
<use xlink:href="#path3_fill" transform="translate(6998.77 -61.2914)" fill="#00C0F3" style="mix-blend-mode:normal;"/>
</g>
</g>
</g>
<g id="XMLID 29" style="mix-blend-mode:normal;" figma:type="frame">
<g id="XMLID 110" style="mix-blend-mode:normal;" figma:type="frame">
<g id="XMLID 114" style="mix-blend-mode:normal;" figma:type="vector">
<use xlink:href="#path4_fill" transform="translate(6999.47 -32.101)" fill="#00C0F3" style="mix-blend-mode:normal;"/>
</g>
</g>
</g>
<g id="XMLID 26" style="mix-blend-mode:normal;" figma:type="frame">
<g id="XMLID 28" style="mix-blend-mode:normal;" figma:type="frame">
<g id="XMLID 104" style="mix-blend-mode:normal;" figma:type="frame">
<g id="XMLID 108" style="mix-blend-mode:normal;" figma:type="vector">
<use xlink:href="#path5_fill" transform="translate(7005.24 -24.9762)" fill="#00C0F3" style="mix-blend-mode:normal;"/>
</g>
</g>
</g>
<g id="XMLID 27" style="mix-blend-mode:normal;" figma:type="frame">
<g id="XMLID 98" style="mix-blend-mode:normal;" figma:type="frame">
<g id="XMLID 102" style="mix-blend-mode:normal;" figma:type="vector">
<use xlink:href="#path6_fill" transform="translate(7025.84 -25.0537)" fill="#00C0F3" style="mix-blend-mode:normal;"/>
</g>
</g>
</g>
</g>
<g id="XMLID 25" style="mix-blend-mode:normal;" figma:type="frame">
<g id="XMLID 92" style="mix-blend-mode:normal;" figma:type="frame">
<g id="XMLID 96" style="mix-blend-mode:normal;" figma:type="vector">
<use xlink:href="#path7_fill" transform="translate(7004.97 -17.0349)" fill="#00C0F3" style="mix-blend-mode:normal;"/>
</g>
</g>
</g>
<g id="XMLID 24" style="mix-blend-mode:normal;" figma:type="frame">
<g id="XMLID 86" style="mix-blend-mode:normal;" figma:type="frame">
<g id="XMLID 90" style="mix-blend-mode:normal;" figma:type="vector">
<use xlink:href="#path8_fill" transform="translate(7027.72 -14.3355)" fill="#00C0F3" style="mix-blend-mode:normal;"/>
</g>
</g>
</g>
<g id="XMLID 23" style="mix-blend-mode:normal;" figma:type="frame">
<g id="XMLID 80" style="mix-blend-mode:normal;" figma:type="frame">
<g id="XMLID 84" style="mix-blend-mode:normal;" figma:type="vector">
<use xlink:href="#path9_fill" transform="translate(7000.89 -7.76148)" fill="#00C0F3" style="mix-blend-mode:normal;"/>
</g>
</g>
</g>
<g id="XMLID 22" style="mix-blend-mode:normal;" figma:type="frame">
<g id="XMLID 74" style="mix-blend-mode:normal;" figma:type="frame">
<g id="XMLID 78" style="mix-blend-mode:normal;" figma:type="vector">
<use xlink:href="#path10_fill" transform="translate(7033.21 -3.28393)" fill="#00C0F3" style="mix-blend-mode:normal;"/>
</g>
</g>
</g>
<g id="XMLID 16" style="mix-blend-mode:normal;" figma:type="frame">
<g id="XMLID 21" style="mix-blend-mode:normal;" figma:type="frame">
<g id="XMLID 68" style="mix-blend-mode:normal;" figma:type="frame">
<g id="XMLID 72" style="mix-blend-mode:normal;" figma:type="vector">
<use xlink:href="#path11_fill" transform="translate(7020.65 -53.4294)" fill="#00C0F3" style="mix-blend-mode:normal;"/>
</g>
</g>
</g>
<g id="XMLID 20" style="mix-blend-mode:normal;" figma:type="frame">
<g id="XMLID 62" style="mix-blend-mode:normal;" figma:type="frame">
<g id="XMLID 66" style="mix-blend-mode:normal;" figma:type="vector">
<use xlink:href="#path12_fill" transform="translate(7019.69 -48.1736)" fill="#00C0F3" style="mix-blend-mode:normal;"/>
</g>
</g>
</g>
<g id="XMLID 19" style="mix-blend-mode:normal;" figma:type="frame">
<g id="XMLID 56" style="mix-blend-mode:normal;" figma:type="frame">
<g id="XMLID 60" style="mix-blend-mode:normal;" figma:type="vector">
<use xlink:href="#path13_fill" transform="translate(7022.6 -41.6807)" fill="#00C0F3" style="mix-blend-mode:normal;"/>
</g>
</g>
</g>
<g id="XMLID 18" style="mix-blend-mode:normal;" figma:type="frame">
<g id="XMLID 50" style="mix-blend-mode:normal;" figma:type="frame">
<g id="XMLID 54" style="mix-blend-mode:normal;" figma:type="vector">
<use xlink:href="#path14_fill" transform="translate(7018.78 -45.6861)" fill="#00C0F3" style="mix-blend-mode:normal;"/>
</g>
</g>
</g>
<g id="XMLID 17" style="mix-blend-mode:normal;" figma:type="frame">
<g id="XMLID 44" style="mix-blend-mode:normal;" figma:type="frame">
<g id="XMLID 48" style="mix-blend-mode:normal;" figma:type="vector">
<use xlink:href="#path15_fill" transform="translate(7026.29 -46.8691)" fill="#00C0F3" style="mix-blend-mode:normal;"/>
</g>
</g>
</g>
</g>
</g>
</g>
</g>
<defs>
<path id="path0_fill" d="M 31.1222 49.979C 26.6035 49.979 22.1475 49.979 17.6287 49.979C 15.4321 49.979 13.2355 49.979 10.9761 49.979C 7.52428 49.979 2.75449 50.7288 2.18964 46.0429C 1.75032 41.7318 2.18964 37.1084 2.18964 32.7974C 2.18964 28.1739 2.18964 23.5505 2.18964 18.9271C 2.18964 14.9909 1.56204 10.305 2.18964 6.43132C 3.00553 1.4955 7.336 2.24524 11.1016 2.24524C 13.2982 2.24524 15.5576 2.24524 17.7542 2.24524C 21.9592 2.24524 26.2897 1.87037 30.4946 2.24524C 35.641 2.68259 35.0134 7.05611 35.0134 10.8673C 35.0134 12.9916 35.0134 15.1159 35.0134 17.1777C 35.0134 22.1135 35.0134 27.1118 35.0134 32.0476C 35.0134 34.4218 35.0134 36.796 35.0134 39.1702C 35.0761 42.794 36.2686 49.5417 31.1222 49.979C 29.7415 50.104 29.7415 52.2283 31.1222 52.1033C 39.03 51.416 37.21 42.0442 37.21 36.4211C 37.21 31.2979 37.21 26.1746 37.21 21.0514C 37.21 16.1155 37.461 11.1172 37.21 6.1814C 36.8334 -1.37853 27.9842 0.120963 22.6495 0.120963C 17.817 0.120963 12.9844 0.120963 8.15188 0.120963C 4.07246 0.120963 0.369589 1.4955 0.0557871 6.1814C -0.0697338 8.49312 0.0557871 10.9298 0.0557871 13.2415C 0.0557871 23.1756 0.0557871 33.0473 0.0557871 42.9814C 0.0557871 46.9176 0.369589 51.3536 5.2649 52.1033C 8.02636 52.5407 11.1016 52.1658 13.9258 52.1658C 19.637 52.1658 25.3482 52.1658 31.1222 52.1658C 32.5029 52.1033 32.5029 49.979 31.1222 49.979Z"/>
<path id="path1_fill" d="M 31.0594 49.979C 26.5407 49.979 22.0847 49.979 17.566 49.979C 15.3693 49.979 13.1727 49.979 10.9133 49.979C 7.46152 49.979 2.69173 50.7288 2.12688 46.0429C 1.68756 41.7318 2.12688 37.1084 2.12688 32.7974C 2.12688 28.1739 2.12688 23.5505 2.12688 18.9271C 2.12688 14.9909 1.49928 10.305 2.12688 6.43132C 2.94277 1.4955 7.27324 2.24524 11.0389 2.24524C 13.2355 2.24524 15.4949 2.24524 17.6915 2.24524C 21.8964 2.24524 26.2269 1.87037 30.4318 2.24524C 35.5782 2.68259 34.9506 7.05611 34.9506 10.8673C 34.9506 12.9916 34.9506 15.1159 34.9506 17.1777C 34.9506 22.1135 34.9506 27.1118 34.9506 32.0476C 34.9506 34.4218 34.9506 36.796 34.9506 39.1702C 34.9506 42.794 36.2058 49.5417 31.0594 49.979C 29.6787 50.104 29.6787 52.2283 31.0594 52.1033C 38.9673 51.416 37.1472 42.0442 37.1472 36.4211C 37.1472 31.2979 37.1472 26.1746 37.1472 21.0514C 37.1472 16.1155 37.3982 11.1172 37.1472 6.1814C 36.7706 -1.37853 27.9842 0.120963 22.6495 0.120963C 17.817 0.120963 12.9844 0.120963 8.15188 0.120963C 4.07246 0.120963 0.369588 1.4955 0.0557861 6.1814C -0.0697348 8.49312 0.0557861 10.9298 0.0557861 13.2415C 0.0557861 23.1756 0.0557861 33.0473 0.0557861 42.9814C 0.0557861 46.9176 0.36959 51.3536 5.2649 52.1033C 8.02636 52.5407 11.1016 52.1658 13.9258 52.1658C 19.637 52.1658 25.3482 52.1658 31.1222 52.1658C 32.3774 52.1033 32.3774 49.979 31.0594 49.979Z"/>
<path id="path2_fill" d="M 6.65261 -5.95844e-08L 8.22162 -5.95844e-08L 12.7404 -5.95844e-08L 18.6399 -5.95844e-08L 21.2758 -5.95844e-08L 24.9787 -5.95844e-08L 29.3719 -5.95844e-08L 39.6646 -5.95844e-08C 41.2336 -5.95844e-08 43.6185 1.24958 44.7482 2.18676C 46.2544 3.37385 46.2544 14.1202 46.2544 14.1202L 46.2544 23.3046L 46.2544 32.0516L 46.2544 36.675L 46.2544 40.3613L 46.2544 42.7355L 46.2544 47.9212L 46.2544 49.6706L 46.2544 50.9827L 46.2544 52.6071L 46.2544 54.4815L 46.2544 59.2924C 46.2544 61.1042 45.5013 62.7287 44.3089 63.9158C 43.1164 65.1029 41.4847 65.8526 39.6646 65.8526L 34.3927 65.8526L 31.0664 65.8526L 27.9912 65.8526L 24.2255 65.8526L 21.2758 65.8526L 17.9495 65.8526L 13.7445 65.8526L 10.2927 65.8526L 6.58985 65.8526C 4.64427 65.8526 -9.57648e-07 63.3535 -9.57648e-07 59.2924L -9.57648e-07 46.9216L -9.57648e-07 40.2988L -9.57648e-07 30.8645L -9.57648e-07 25.054L -9.57648e-07 19.9932L -9.57648e-07 6.56027C -9.57648e-07 5.24822 0.376562 4.06112 1.06693 2.99898C 2.25938 1.24958 4.26771 -5.95844e-08 6.65261 -5.95844e-08Z"/>
<path id="path3_fill" d="M 8.07988 2.5513C 14.1049 2.5513 20.1926 2.5513 26.2176 2.5513C 28.9163 2.5513 31.615 2.5513 34.3765 2.5513C 37.7656 2.5513 44.2299 1.55164 45.7361 5.4878C 46.8658 8.48679 46.4893 12.6104 46.4893 15.7968C 46.4893 18.8583 46.4893 21.8572 46.4893 24.9187C 46.4893 31.1041 46.4893 37.2895 46.4893 43.4749C 46.4893 49.1605 46.8658 55.0335 46.4893 60.719C 46.0499 67.1544 39.2718 66.1547 34.6903 66.1547C 31.6778 66.1547 28.6653 66.1547 25.6528 66.1547C 22.8286 66.1547 20.0671 66.1547 17.2429 66.1547C 14.2932 66.1547 11.0924 66.5296 8.14264 66.1547C 2.30592 65.4674 2.61972 60.0943 2.61972 55.7832C 2.61972 52.7842 2.61972 49.7853 2.61972 46.8488C 2.61972 39.9761 2.61972 33.1034 2.61972 26.2308C 2.61972 22.9194 2.61972 19.608 2.61972 16.2966C 2.61972 11.3608 1.11347 2.98865 8.07988 2.5513C 9.52337 2.42635 9.58613 0.177109 8.07988 0.239588C -2.33835 0.926855 0.297586 14.2973 0.297586 21.3574C 0.297586 28.0426 0.297586 34.7904 0.297586 41.4756C 0.297586 44.1622 0.297586 46.8488 0.297586 49.5978C 0.297586 53.4715 -0.204497 57.6576 0.360347 61.4688C 1.61556 70.3408 13.038 68.4039 19.3768 68.4039C 26.0294 68.4039 32.6192 68.4039 39.2718 68.4039C 44.4182 68.4039 48.6231 65.9673 48.7486 60.3442C 48.8114 57.1578 48.7486 54.0338 48.7486 50.8474C 48.7486 37.9143 49.2507 24.8562 48.6231 11.8606C 48.4976 9.36149 48.5604 6.36251 47.619 3.98831C 46.7403 1.86404 43.8533 0.614461 41.6567 0.239588C 38.0794 -0.260242 34.1882 0.177109 30.5481 0.177109C 23.0169 0.177109 15.4856 0.177109 7.95436 0.177109C 6.57363 0.239588 6.57363 2.5513 8.07988 2.5513Z"/>
<path id="path4_fill" d="M 0.980574 2.10115C 4.49516 1.03901 8.51183 1.6638 12.0892 1.78876C 16.0431 1.91372 19.9342 2.03867 23.8881 2.10115C 31.7332 2.22611 39.641 2.28859 47.4861 2.22611C 48.4902 2.22611 48.4902 0.664141 47.4861 0.664141C 39.2017 0.72662 30.9173 0.664141 22.6329 0.539183C 18.679 0.476705 14.7879 0.351747 10.834 0.22679C 7.4449 0.101832 3.86755 -0.397998 0.54125 0.664141C -0.400156 0.851578 -0.0235934 2.41355 0.980574 2.10115Z"/>
<path id="path5_fill" d="M 1.08802 4.6777C 1.99278 3.60394 2.95077 2.47905 3.85553 1.4053C 3.5362 1.4053 3.21687 1.4053 2.89754 1.4053C 4.12164 2.47905 5.34573 3.50168 6.56982 4.57544C 6.83593 4.77996 7.2617 4.8311 7.52781 4.57544C 8.64546 3.45055 9.76311 2.32566 10.8808 1.20077C 10.5614 1.20077 10.2421 1.20077 9.92277 1.20077C 10.9872 2.2234 11.9984 3.24602 13.0628 4.26865C 13.3289 4.52431 13.7547 4.47318 14.0208 4.26865C 14.8191 3.60394 16.3626 1.76321 17.3205 1.76321C 18.3318 1.76321 20.0881 3.55281 20.8864 4.11526C 21.5783 4.62657 22.2169 3.50168 21.5783 2.99037C 20.2477 2.01887 18.9172 1.04737 17.5867 0.0758792C 17.3205 -0.0775148 17.0012 0.0247482 16.7883 0.178142C 15.5642 1.2519 14.3401 2.27453 13.1161 3.34829C 13.4354 3.34829 13.7547 3.34829 14.074 3.34829C 13.0096 2.32566 11.9984 1.30303 10.934 0.280405C 10.6679 0.0247486 10.2421 0.0247486 9.97599 0.280405C 8.85834 1.40529 7.74069 2.53018 6.62304 3.65507C 6.94237 3.65507 7.2617 3.65507 7.58103 3.65507C 6.35694 2.58131 5.13284 1.55869 3.90875 0.484931C 3.64264 0.280406 3.21687 0.229275 2.95077 0.484931C 2.046 1.55869 1.08802 2.68358 0.183253 3.75734C -0.402183 4.37091 0.555803 5.29128 1.08802 4.6777Z"/>
<path id="path6_fill" d="M 1.14067 4.2439C 1.56644 3.78372 2.04543 3.27241 2.47121 2.81222C 2.68409 2.6077 3.53563 1.38055 3.80174 1.38055C 4.28073 1.32941 5.07905 2.24978 5.39838 2.55657C 5.87738 2.96562 6.35637 3.37467 6.83536 3.78372C 7.47402 4.34616 8.432 3.4258 7.79335 2.86336C 6.99503 2.19865 6.24993 1.53394 5.4516 0.920363C 5.02583 0.562444 4.49362 -3.90101e-07 3.85496 -3.90101e-07C 3.26953 -3.90101e-07 2.89698 0.511313 2.52443 0.869233C 1.7261 1.68733 0.927783 2.55657 0.182683 3.37467C -0.402753 3.93711 0.555234 4.85748 1.14067 4.2439Z"/>
<path id="path7_fill" d="M 1.25016 3.69026C 2.42103 2.15632 3.64512 3.02556 4.70955 4.09931C 4.97566 4.35497 5.40143 4.30384 5.66753 4.09931C 6.67874 3.28121 7.90283 1.64501 9.44626 2.10519C 10.2978 2.36085 11.4687 3.74139 12.1073 4.30384C 12.3734 4.50836 12.7992 4.5595 13.0653 4.30384C 14.0233 3.23008 14.8748 2.00293 16.4183 1.90066C 17.8552 1.84953 19.0793 2.87216 20.3034 3.588C 21.0485 3.99705 21.6872 2.92329 20.9953 2.46311C 19.8244 1.74727 17.6424 -0.144588 16.1522 0.00880629C 14.6087 0.1622 13.0121 2.36085 12.1073 3.33234C 12.4267 3.33234 12.746 3.33234 13.0653 3.33234C 12.1073 2.51424 10.2978 0.264465 8.91404 0.162202C 7.58351 0.0599392 5.66753 2.36085 4.76277 3.12782C 5.0821 3.12782 5.40143 3.12782 5.72076 3.12782C 5.0821 2.46311 3.53868 0.724644 2.42103 0.826907C 1.3566 0.92917 0.717943 2.25859 0.185729 2.97443C -0.452928 3.7414 0.717943 4.35497 1.25016 3.69026Z"/>
<path id="path8_fill" d="M 8.12094e-07 0.632895C 8.12094e-07 0.684027 8.12094e-07 0.684025 8.12094e-07 0.735157C 8.12094e-07 1.55326 1.33054 1.55326 1.33054 0.735157C 1.33054 0.684025 1.33054 0.684027 1.33054 0.632895C 1.33054 -0.185206 8.12094e-07 -0.236337 8.12094e-07 0.632895Z"/>
<path id="path9_fill" d="M 0.753126 2.06363C 15.6274 2.4385 30.5016 2.31354 45.3758 1.56379C 46.38 1.50131 46.38 -0.0606546 45.3758 0.00182418C 30.5016 0.689091 15.6274 0.876529 0.753126 0.501656C -0.251041 0.439177 -0.251041 2.00115 0.753126 2.06363Z"/>
<path id="path10_fill" d="M 2.80063 0.766052C 2.92615 2.26554 2.92615 3.82751 2.92615 5.327C 3.23995 5.07709 3.61651 4.82718 3.93032 4.57726C 2.92615 4.26487 2.0475 3.70256 1.04333 3.45264C 0.917811 3.95247 0.792292 4.4523 0.604011 4.95213C 1.35714 5.13957 2.0475 5.51444 2.73787 5.95179C 3.11443 6.20171 3.49099 6.45162 3.93032 6.32666C 4.36964 6.26418 4.7462 5.88931 5.06 5.70188C 5.62485 5.38948 6.18969 5.13957 6.8173 4.88965C 7.7587 4.51478 7.31938 3.01529 6.37797 3.39016C 5.31104 3.82751 4.36964 4.4523 3.30271 4.95213C 3.49099 4.95213 3.67927 4.88965 3.93032 4.88965C 3.42823 4.7647 2.92615 4.26486 2.48682 4.07743C 1.98474 3.82751 1.54542 3.70255 0.980573 3.51512C -0.0235944 3.2652 -0.400155 4.76469 0.541252 5.01461C 1.54542 5.26452 2.42406 5.82684 3.42823 6.13923C 3.93031 6.32667 4.4324 5.88931 4.4324 5.38948C 4.4324 3.88999 4.4324 2.32802 4.30688 0.828534C 4.30688 -0.233605 2.73787 -0.296087 2.80063 0.766052Z"/>
<path id="path11_fill" d="M 0.204531 3.31137C -0.109272 4.9983 1.08318 6.56027 2.90323 6.56027C 4.66052 6.49779 5.91573 4.93582 5.97849 3.31137C 6.04125 1.56197 4.59776 1.10985e-15 2.77771 1.10985e-15C 0.706613 1.10985e-15 0.330049 2.68659 0.0162473 4.24856C -0.172034 5.24822 1.33422 5.68557 1.5225 4.68591C 1.64802 3.87368 1.8363 2.9365 2.1501 2.12428C 2.40114 1.56197 2.71495 1.49949 3.27979 1.68693C 3.78188 1.87436 4.15844 2.18676 4.34672 2.68659C 4.59776 3.43633 4.2212 4.43599 3.46807 4.81087C 2.65219 5.24822 1.45974 4.81087 1.64802 3.74873C 1.89906 2.74907 0.392812 2.31171 0.204531 3.31137Z"/>
<path id="path12_fill" d="M 2.79576 0.742113C 2.79576 2.36656 2.85852 3.99101 2.79576 5.67794C 2.733 7.73973 1.41503 9.05179 0.15982 10.6762C -0.467785 11.4885 0.912943 12.2382 1.54055 11.4885C 2.54471 10.1764 4.17649 8.67692 4.36477 6.92751C 4.55305 4.92819 4.36477 2.80391 4.42753 0.804592C 4.36477 -0.257547 2.79576 -0.257547 2.79576 0.742113Z"/>
<path id="path13_fill" d="M 0.190415 1.37187C 1.25734 2.7464 2.32427 4.05846 3.45396 5.43299C 4.08156 6.24521 5.21125 5.1206 4.58365 4.30837C 3.51672 2.93384 2.44979 1.62179 1.3201 0.247253C 0.62974 -0.502492 -0.43719 0.622125 0.190415 1.37187Z"/>
<path id="path14_fill" d="M 0.753126 1.69098C 3.38906 1.81594 5.83672 2.56568 8.34714 1.44106C 9.28855 1.00371 8.47266 -0.308341 7.53125 0.0665313C 5.3974 1.06619 2.94974 0.191489 0.753126 0.12901C -0.251041 0.0665315 -0.251041 1.6285 0.753126 1.69098Z"/>
<path id="path15_fill" d="M 0.327446 0.854406C 0.109149 1.6017 8.32738e-07 2.39881 8.32738e-07 3.14611C 8.32738e-07 3.44502 0.327445 3.79376 0.654891 3.74394C 1.30978 3.69412 2.23755 3.74394 2.40127 2.99665C 2.45585 2.64791 2.45584 2.24935 2.45584 1.90062C 2.45584 1.45224 2.51042 1.05368 2.51042 0.605308C 2.51042 0.156932 2.07382 -0.042347 1.63723 0.00747255C 1.41893 0.0572921 1.14606 0.0572925 0.927762 0.107112C 0.0545735 0.206751 0.436596 1.40242 1.30978 1.30278C 1.52808 1.25296 1.80095 1.25296 2.01925 1.20314C 1.74638 1.00386 1.41893 0.804586 1.14606 0.605308C 1.14606 1.15332 1.09149 1.65152 1.09149 2.19953C 1.09149 2.29917 1.09149 2.44863 1.09149 2.54827C 1.09149 2.74755 0.982336 2.99665 1.25521 2.59809C 1.4735 2.29917 1.41893 2.39881 1.14606 2.39881C 0.982337 2.39881 0.873187 2.44863 0.709464 2.44863C 0.927761 2.64791 1.14606 2.84719 1.36436 3.04647C 1.36436 2.34899 1.47351 1.70134 1.63723 1.05368C 1.85553 0.406029 0.545743 0.0572925 0.327446 0.854406Z"/>
</defs>
</svg>
