<svg width="186" height="86" viewBox="0 0 186 86" version="1.1" xmlns="http://www.w3.org/2000/svg"><title>logo</title><g stroke="none" stroke-width="1" fill="none" fill-rule="evenodd"><path fill="#2EA5E0" d="M0 0h186v86H0z"/><g fill="#FFF"><path d="M34.773 27.939v21.077c0 1.268.173 2.096.5 2.504.352.383 1.059.576 2.153.576h.194v.945h-8.486v-.945h.268c1.054 0 1.742-.193 2.063-.576.337-.408.488-1.236.488-2.504V34.68c0-1.474-.09-2.408-.306-2.799-.19-.391-.744-.8-1.645-1.19l-.868-.37v-.247l5.639-2.135zm9.15 7.66v13.417c0 1.26.155 2.086.5 2.492.327.395 1.023.59 2.085.59h.245v.944h-8.486v-.944h.307c1.039 0 1.72-.193 2.042-.576.319-.41.486-1.237.487-2.506v-6.703c0-1.527-.1-2.468-.282-2.823-.177-.345-.756-.761-1.758-1.213l-.796-.38v-.235l5.656-2.063zm-1.92-2.21c-.565 0-1.047-.191-1.43-.574-.381-.384-.571-.87-.571-1.438 0-.561.19-1.025.572-1.426.382-.391.863-.586 1.43-.586.565 0 1.047.195 1.428.586.382.401.573.866.573 1.426 0 .568-.19 1.054-.573 1.438-.381.383-.863.574-1.429.574zM54.428 53.52l-6.456-13.528c-.657-1.282-1.15-2.108-1.478-2.476a1.602 1.602 0 0 0-1.257-.564h-.234v-.945h7.057v.945h-.268c-.994 0-1.49.25-1.49.75 0 .329.27 1.087.83 2.27l4.553 9.619 3.98-9.608c.436-1.015.645-1.709.645-2.085 0-.63-.533-.945-1.634-.945h-.256v-.945h5.664v.945h-.232c-.482 0-.89.207-1.258.638-.359.43-.79 1.216-1.295 2.393L55.44 53.52h-1.01zm22.898-3.352v1.436c-2.224 1.285-4.367 1.916-6.461 1.916-2.506 0-4.57-.852-6.189-2.543-1.62-1.688-2.43-3.836-2.43-6.438 0-2.597.784-4.74 2.336-6.445 1.542-1.705 3.502-2.566 5.832-2.566 2.11 0 3.741.695 4.911 2.084 1.162 1.408 1.758 3.351 1.759 5.831v.493H65.46c-.024.353-.028.581-.028.709 0 1.983.624 3.633 1.87 4.985 1.245 1.331 2.791 2.002 4.625 2.002 1.775 0 3.558-.489 5.4-1.464zm-11.805-7.179h3.136c2.262 0 3.694-.115 4.298-.331.596-.237.902-.791.902-1.659 0-1.329-.326-2.412-.99-3.264-.65-.837-1.502-1.265-2.526-1.265-1.283 0-2.357.601-3.235 1.766-.871 1.177-1.394 2.755-1.585 4.753zM91.193 53.52l-4.615-13.438c-.697-2.097-1.366-3.13-1.993-3.13h-.193v-.945h6.483v.945h-.21c-1.093 0-1.647.33-1.647 1.006 0 .185.051.425.135.71.106.354.164.553.172.615l.218.811 3.14 9.107 4.593-13.195h.97l5.45 13.266 2.77-9.179c.31-.999.453-1.729.455-2.176 0-.645-.46-.967-1.347-.967h-.228v-.945h4.708v.945h-.228c-.75 0-1.462 1.037-2.114 3.143l-4.189 13.427h-.963l-5.537-13.684-4.83 13.684h-1zm26.096 0c-2.498 0-4.571-.852-6.191-2.543-1.588-1.688-2.405-3.84-2.405-6.467 0-2.604.817-4.767 2.405-6.458 1.62-1.673 3.693-2.526 6.191-2.527 2.507 0 4.55.854 6.163 2.527 1.618 1.691 2.445 3.854 2.445 6.458 0 2.626-.827 4.778-2.445 6.467-1.612 1.691-3.657 2.543-6.163 2.543zm0-1.066c1.543 0 2.796-.733 3.76-2.187.965-1.453 1.414-3.375 1.416-5.759 0-2.358-.451-4.279-1.417-5.73-.964-1.453-2.217-2.186-3.759-2.186-1.563 0-2.813.733-3.747 2.186-.962 1.451-1.443 3.372-1.443 5.73 0 2.382.48 4.306 1.443 5.759.934 1.454 2.184 2.187 3.747 2.187zm14.109-12.166v8.728c0 1.269.173 2.092.559 2.492.42.385 1.227.576 2.488.576h.233v.958h-9.041v-.944h.268c1.107 0 1.802-.193 2.143-.576.354-.41.514-1.237.514-2.506v-6.703c0-1.505-.104-2.453-.288-2.846-.214-.415-.77-.807-1.735-1.19l-.9-.38v-.235l5.763-2.062v3.365c1.044-1.146 2.022-2.009 2.9-2.577.888-.569 1.709-.861 2.393-.862 1.3 0 2.341.661 3.192 1.95l-2.316 2.506c-.756-1.314-1.56-1.963-2.488-1.963-.787 0-1.917.656-3.378 2.001l-.307.268zm12.98 3.153v5.575c0 1.26.159 2.086.512 2.492.352.395 1.046.59 2.145.59h.158v.944h-8.486v-.944h.3c1.038 0 1.742-.193 2.046-.576.338-.41.491-1.237.491-2.506V34.591c0-1.396-.112-2.315-.302-2.722-.215-.431-.737-.818-1.602-1.179l-.933-.37v-.247l5.67-2.135v15.53l4.548-3.892c1.347-1.128 2.01-1.855 2.055-2.163.018-.315-.435-.464-1.322-.464h-.233v-.945h6.006v.945h-.254c-.744 0-2.25.945-4.517 2.834l-3.374 2.812 5.629 6.406c1.836 2.067 3.13 3.093 3.958 3.093h.19v.945h-4.183l-8.502-9.598zM79.798 27.672h2.707v29.999h-2.707z"/></g></g></svg>