<svg width="110" height="84" viewBox="0 0 110 84" version="1.1" xmlns="http://www.w3.org/2000/svg" xmlns:xlink="http://www.w3.org/1999/xlink" xmlns:figma="http://www.figma.com/figma/ns">
<title>Livreto_icon</title>
<desc>Created using Figma</desc>
<g id="Canvas" transform="translate(-7763 75)" figma:type="canvas">
<g id="Livreto_icon" style="mix-blend-mode:normal;" figma:type="frame">
<g id="XMLID 15" style="mix-blend-mode:normal;" figma:type="frame">
<g id="XMLID 34" style="mix-blend-mode:normal;" figma:type="frame">
<g id="XMLID 152" style="mix-blend-mode:normal;" figma:type="vector">
<use xlink:href="#path0_fill" transform="matrix(0.999925 -0.0122492 0.0122492 0.999925 7826.21 -13.4953)" fill="#FFFFFF" style="mix-blend-mode:normal;"/>
</g>
<g id="XMLID 147" style="mix-blend-mode:normal;" figma:type="frame">
<g id="XMLID 151" style="mix-blend-mode:normal;" figma:type="vector">
<use xlink:href="#path1_fill" transform="matrix(0.999925 -0.0122492 0.0122492 0.999925 7824.96 -14.6479)" fill="#00C0F3" style="mix-blend-mode:normal;"/>
</g>
</g>
</g>
<g id="XMLID 33" style="mix-blend-mode:normal;" figma:type="frame">
<g id="XMLID 145" style="mix-blend-mode:normal;" figma:type="vector">
<use xlink:href="#path2_fill" transform="matrix(0.999925 -0.0122492 0.0122492 0.999925 7784.13 -55.3567)" fill="#FFFFFF" style="mix-blend-mode:normal;"/>
</g>
<g id="XMLID 140" style="mix-blend-mode:normal;" figma:type="frame">
<g id="XMLID 144" style="mix-blend-mode:normal;" figma:type="vector">
<use xlink:href="#path3_fill" transform="matrix(0.999925 -0.0122492 0.0122492 0.999925 7782.84 -56.6586)" fill="#00C0F3" style="mix-blend-mode:normal;"/>
</g>
</g>
</g>
<g id="XMLID 32" style="mix-blend-mode:normal;" figma:type="frame">
<g id="XMLID 134" style="mix-blend-mode:normal;" figma:type="frame">
<g id="XMLID 138" style="mix-blend-mode:normal;" figma:type="vector">
<use xlink:href="#path4_fill" transform="matrix(0.999925 -0.0122492 0.0122492 0.999925 7819.02 -46.2238)" fill="#00C0F3" style="mix-blend-mode:normal;"/>
</g>
</g>
</g>
<g id="XMLID 31" style="mix-blend-mode:normal;" figma:type="frame">
<g id="XMLID 128" style="mix-blend-mode:normal;" figma:type="frame">
<g id="XMLID 132" style="mix-blend-mode:normal;" figma:type="vector">
<use xlink:href="#path5_fill" transform="matrix(0.999925 -0.0122492 0.0122492 0.999925 7780.94 -46.0325)" fill="#00C0F3" style="mix-blend-mode:normal;"/>
</g>
</g>
</g>
<g id="XMLID 30" style="mix-blend-mode:normal;" figma:type="frame">
<g id="XMLID 122" style="mix-blend-mode:normal;" figma:type="frame">
<g id="XMLID 126" style="mix-blend-mode:normal;" figma:type="vector">
<use xlink:href="#path6_fill" transform="matrix(0.999925 -0.0122492 0.0122492 0.999925 7780.65 -67.3093)" fill="#00C0F3" style="mix-blend-mode:normal;"/>
</g>
</g>
</g>
<g id="XMLID 29" style="mix-blend-mode:normal;" figma:type="frame">
<g id="XMLID 116" style="mix-blend-mode:normal;" figma:type="frame">
<g id="XMLID 120" style="mix-blend-mode:normal;" figma:type="vector">
<use xlink:href="#path7_fill" transform="matrix(0.999925 -0.0122492 0.0122492 0.999925 7804.09 -73.1745)" fill="#00C0F3" style="mix-blend-mode:normal;"/>
</g>
</g>
</g>
<g id="XMLID 28" style="mix-blend-mode:normal;" figma:type="frame">
<g id="XMLID 110" style="mix-blend-mode:normal;" figma:type="frame">
<g id="XMLID 114" style="mix-blend-mode:normal;" figma:type="vector">
<use xlink:href="#path8_fill" transform="matrix(0.999925 -0.0122492 0.0122492 0.999925 7831.9 -74.5017)" fill="#00C0F3" style="mix-blend-mode:normal;"/>
</g>
</g>
</g>
<g id="XMLID 27" style="mix-blend-mode:normal;" figma:type="frame">
<g id="XMLID 104" style="mix-blend-mode:normal;" figma:type="frame">
<g id="XMLID 108" style="mix-blend-mode:normal;" figma:type="vector">
<use xlink:href="#path9_fill" transform="matrix(0.999925 -0.0122492 0.0122492 0.999925 7855.93 -70.2512)" fill="#00C0F3" style="mix-blend-mode:normal;"/>
</g>
</g>
</g>
<g id="XMLID 26" style="mix-blend-mode:normal;" figma:type="frame">
<g id="XMLID 98" style="mix-blend-mode:normal;" figma:type="frame">
<g id="XMLID 102" style="mix-blend-mode:normal;" figma:type="vector">
<use xlink:href="#path10_fill" transform="matrix(0.999925 -0.0122492 0.0122492 0.999925 7763.25 -53.3741)" fill="#00C0F3" style="mix-blend-mode:normal;"/>
</g>
</g>
</g>
<g id="XMLID 25" style="mix-blend-mode:normal;" figma:type="frame">
<g id="XMLID 92" style="mix-blend-mode:normal;" figma:type="frame">
<g id="XMLID 96" style="mix-blend-mode:normal;" figma:type="vector">
<use xlink:href="#path11_fill" transform="matrix(0.999925 -0.0122492 0.0122492 0.999925 7863.18 -56.3223)" fill="#00C0F3" style="mix-blend-mode:normal;"/>
</g>
</g>
</g>
<g id="XMLID 24" style="mix-blend-mode:normal;" opacity="0.2" figma:type="frame">
<g id="XMLID 87" style="mix-blend-mode:normal;" figma:type="vector">
<use xlink:href="#path12_fill" transform="matrix(0.999925 -0.0122492 0.0122492 0.999925 7843.97 -45.2781)" fill="#00C0F3" style="mix-blend-mode:normal;"/>
</g>
</g>
<g id="XMLID 23" style="mix-blend-mode:normal;" figma:type="frame">
<g id="XMLID 75" style="mix-blend-mode:normal;" opacity="0.2" figma:type="vector">
<use xlink:href="#path13_fill" transform="matrix(0.999925 -0.0122492 0.0122492 0.999925 7790.34 -41.7843)" fill="#00C0F3" style="mix-blend-mode:normal;"/>
</g>
</g>
<g id="XMLID 22" style="mix-blend-mode:normal;" figma:type="frame">
<g id="XMLID 82" style="mix-blend-mode:normal;" figma:type="frame">
<g id="XMLID 86" style="mix-blend-mode:normal;" figma:type="vector">
<use xlink:href="#path14_fill" transform="matrix(0.999925 -0.0122492 0.0122492 0.999925 7824.94 -43.8673)" fill="#00C0F3" style="mix-blend-mode:normal;"/>
</g>
</g>
</g>
<g id="XMLID 21" style="mix-blend-mode:normal;" figma:type="frame">
<g id="XMLID 76" style="mix-blend-mode:normal;" figma:type="frame">
<g id="XMLID 80" style="mix-blend-mode:normal;" figma:type="vector">
<use xlink:href="#path15_fill" transform="matrix(0.999925 -0.0122492 0.0122492 0.999925 7827.91 -29.3122)" fill="#00C0F3" style="mix-blend-mode:normal;"/>
</g>
</g>
</g>
<g id="XMLID 20" style="mix-blend-mode:normal;" figma:type="frame">
<g id="XMLID 70" style="mix-blend-mode:normal;" figma:type="frame">
<g id="XMLID 74" style="mix-blend-mode:normal;" figma:type="vector">
<use xlink:href="#path16_fill" transform="matrix(0.999925 -0.0122492 0.0122492 0.999925 7828.49 -22.4647)" fill="#00C0F3" style="mix-blend-mode:normal;"/>
</g>
</g>
</g>
<g id="XMLID 19" style="mix-blend-mode:normal;" figma:type="frame">
<g id="XMLID 64" style="mix-blend-mode:normal;" figma:type="frame">
<g id="XMLID 68" style="mix-blend-mode:normal;" figma:type="vector">
<use xlink:href="#path17_fill" transform="matrix(0.999925 -0.0122492 0.0122492 0.999925 7829.78 -14.4633)" fill="#00C0F3" style="mix-blend-mode:normal;"/>
</g>
</g>
</g>
<g id="XMLID 18" style="mix-blend-mode:normal;" figma:type="frame">
<g id="XMLID 58" style="mix-blend-mode:normal;" figma:type="frame">
<g id="XMLID 62" style="mix-blend-mode:normal;" figma:type="vector">
<use xlink:href="#path18_fill" transform="matrix(0.999925 -0.0122492 0.0122492 0.999925 7802.95 -40.9485)" fill="#00C0F3" style="mix-blend-mode:normal;"/>
</g>
</g>
</g>
<g id="XMLID 17" style="mix-blend-mode:normal;" figma:type="frame">
<g id="XMLID 52" style="mix-blend-mode:normal;" figma:type="frame">
<g id="XMLID 56" style="mix-blend-mode:normal;" figma:type="vector">
<use xlink:href="#path19_fill" transform="matrix(0.999925 -0.0122492 0.0122492 0.999925 7804.18 -20.2283)" fill="#00C0F3" style="mix-blend-mode:normal;"/>
</g>
</g>
</g>
<g id="XMLID 16" style="mix-blend-mode:normal;" figma:type="frame">
<g id="XMLID 46" style="mix-blend-mode:normal;" figma:type="frame">
<g id="XMLID 50" style="mix-blend-mode:normal;" figma:type="vector">
<use xlink:href="#path20_fill" transform="matrix(0.999925 -0.0122492 0.0122492 0.999925 7805.14 -13.7182)" fill="#00C0F3" style="mix-blend-mode:normal;"/>
</g>
</g>
</g>
</g>
</g>
</g>
<defs>
<path id="path0_fill" d="M 0.172072 20.2335C -0.425226 20.0841 0.694706 19.9348 1.06802 19.7108C 1.73998 19.3375 2.4866 18.9642 3.23322 18.7402C 4.87579 18.2176 6.66769 18.0683 8.38492 17.695C 11.4461 17.023 14.4326 16.799 17.5684 16.5004C 23.84 15.9031 30.1116 16.2017 36.4579 15.9777C 36.2339 14.9325 32.7995 0.746621 32.0529 -1.13926e-06"/>
<path id="path1_fill" d="M 2.30362 20.5053C 2.22896 20.4307 2.22896 20.4307 2.1543 20.356C 1.93031 21.1026 1.78098 21.8492 1.55699 22.5212C 13.055 18.1908 25.5236 18.8628 37.6189 18.4894C 38.5148 18.4894 39.1121 17.6682 38.8881 16.8469C 38.2162 14.0097 37.4695 11.1725 36.7976 8.33537C 36.2003 6.02084 35.827 2.51172 34.3337 0.570499C 33.3631 -0.773422 31.0486 0.495833 32.0939 1.91442C 33.5124 3.85563 33.8858 7.51409 34.4831 9.82862C 35.155 12.3671 35.7523 14.9803 36.4243 17.5188C 36.8722 16.9962 37.2456 16.3989 37.6935 15.8763C 25.3743 16.2496 12.607 15.5776 0.9597 19.9827C -0.0109094 20.356 -0.309561 21.4013 0.3624 22.1479C 0.437062 22.2226 0.43706 22.2226 0.511722 22.2972C 1.55699 23.6411 3.42355 21.7746 2.30362 20.5053Z"/>
<path id="path2_fill" d="M 0 6.68516C 15.3804 -3.84222 34.8673 7.05847 34.8673 7.05847C 34.8673 7.05847 53.7568 -5.78344 71.4518 3.17603C 73.2437 12.5835 76.1555 36.8487 76.8275 42.747C 77.2754 47.0028 78.9927 51.3332 79.0673 55.5143C 72.1984 53.9464 63.5376 55.4396 56.6687 56.7835C 52.2636 57.6795 41.9602 60.89 41.9602 60.89C 41.9602 60.89 27.6997 57.5302 23.7426 57.3808C 17.023 57.0822 10.6767 57.9781 4.18109 59.2474C 2.91183 54.8423 3.21048 49.0187 3.21048 44.4643C 3.21048 38.9393 2.68784 33.5636 2.31453 28.0386C 1.86656 21.6176 0 6.68516 0 6.68516Z"/>
<path id="path3_fill" d="M 1.94734 9.12265C 11.9521 2.62704 25.3166 3.89629 35.4707 9.49596C 35.844 9.71995 36.4413 9.79461 36.8146 9.49596C 41.0704 6.6588 45.9981 4.71758 51.0005 3.59765C 55.9282 2.47771 61.0799 2.25373 66.0822 3.44832C 67.4262 3.74697 68.6954 4.19494 69.9647 4.71758C 71.5326 5.38954 71.3832 5.31488 71.8312 6.73346C 72.2792 8.07738 72.3539 9.79461 72.5779 11.2132C 73.7724 19.0527 74.743 26.8923 75.7137 34.7318C 76.0123 37.4197 76.3856 40.1075 76.6843 42.87C 77.2069 47.5737 78.7748 52.1281 78.9988 56.9065C 79.5214 56.4585 80.1187 56.0852 80.6414 55.6372C 72.5779 54.0693 64.0663 55.4133 56.2268 57.2052C 53.2403 57.8771 50.2538 58.7731 47.342 59.669C 46.1474 60.0423 44.9528 60.341 43.8329 60.7143C 42.7129 61.0876 43.3102 60.9383 43.3102 60.9383C 38.4572 60.4156 33.6041 58.6984 28.8258 57.9518C 20.9862 56.6825 12.9227 57.8771 5.15782 59.445C 5.68046 59.7437 6.20309 60.0423 6.80039 60.341C 5.30715 54.2933 6.05377 47.947 5.82978 41.7501C 5.68046 36.673 5.23248 31.596 4.78451 26.5936C 4.18721 20.3967 3.44059 14.1997 2.69397 8.00272C 2.46998 6.36015 -0.143199 6.36015 0.0807877 8.00272C 0.902073 14.4237 1.64869 20.9193 2.24599 27.3402C 2.76863 33.0146 3.2166 38.7636 3.29127 44.5126C 3.36593 50.0376 2.91795 55.6372 4.26187 61.0876C 4.4112 61.8342 5.15782 62.1329 5.90445 61.9835C 13.8933 60.4156 21.9568 59.3704 30.0204 60.8636C 34.1268 61.6102 38.6812 63.4021 42.8623 63.6261C 43.9822 63.7008 45.1021 63.1781 46.2221 62.8048C 48.9846 61.9835 51.7471 61.1623 54.5842 60.4156C 62.6478 58.2504 71.6819 56.5332 80.0441 58.1758C 80.8654 58.3251 81.7613 57.8025 81.6866 56.9065C 81.4627 51.6055 79.7454 46.5285 79.1481 41.3021C 78.7002 37.1957 78.1775 33.0892 77.6549 28.9828C 77.0576 24.1298 76.3856 19.2767 75.7137 14.4237C 75.415 12.3331 75.1164 10.2426 74.743 8.15204C 74.5191 6.88279 74.5937 4.64292 73.6978 3.59765C 72.3539 2.02974 68.0235 1.20845 66.1569 0.76048C 63.4691 0.163181 60.6319 -0.0608053 57.8694 0.013857C 53.0163 0.163181 48.1633 1.35778 43.6089 3.14967C 42.041 3.74697 40.4731 4.49359 38.9052 5.24022C 38.3079 5.53886 36.068 6.36015 35.7693 7.03211C 35.3214 7.92806 36.4413 6.50947 36.74 7.2561C 36.6653 7.10677 36.2173 7.03211 36.068 6.88278C 35.2467 6.21082 33.7535 5.83751 32.7082 5.38954C 22.2555 1.20845 10.3095 0.536493 0.603424 6.80812C -0.815159 7.77873 0.528761 10.0186 1.94734 9.12265Z"/>
<path id="path4_fill" d="M 0.015173 1.23193C -0.208814 8.17552 2.10572 15.3431 3.07632 22.1374C 4.27092 30.3502 5.83883 38.6377 5.91349 46.9252C 5.91349 48.6425 8.52667 48.6425 8.52667 46.9252C 8.45201 39.3097 7.03343 31.7688 5.98815 24.2279C 5.46552 20.4948 4.94289 16.7617 4.27093 13.1032C 3.59897 9.14613 2.47903 5.26369 2.62835 1.23193C 2.70301 -0.410643 0.0898353 -0.410643 0.015173 1.23193Z"/>
<path id="path5_fill" d="M 3.52924 0.237878C -2.5184 -2.15131 0.990726 14.1997 1.21471 16.0663C 1.81201 22.2632 2.55863 28.4602 3.08127 34.6572C 3.52924 39.8089 3.37992 45.0352 4.2012 50.1869C 4.57451 52.8001 4.87316 55.1146 7.85965 54.8907C 10.1742 54.7413 12.4141 53.9947 14.6539 53.4721C 17.7151 52.7255 20.8509 52.8748 23.912 52.9494C 29.0637 53.0241 34.5887 52.5761 39.6658 53.3228C 41.5323 53.6214 44.8175 55.1146 46.6094 53.9947C 48.0279 53.0988 46.7587 50.8589 45.2654 51.7548C 44.5935 52.2028 40.5617 50.7842 39.2178 50.6349C 35.7087 50.1869 32.1249 50.7096 28.6158 50.5602C 24.7333 50.4109 20.7016 50.0376 16.8191 50.4856C 14.8032 50.7096 12.9367 51.3069 10.9955 51.7548C 10.0995 51.9788 8.08364 52.8001 7.41168 52.4268C 6.88904 52.0535 7.33702 52.5761 6.88904 51.1575C 5.76911 47.1258 6.14242 42.5714 5.91843 38.3903C 5.61979 33.8359 5.17181 29.2815 4.64918 24.8018C 4.12654 20.098 3.67857 15.469 3.23059 10.7653C 3.23059 10.5413 2.85728 3.00038 2.85728 3.00038C 4.35053 3.44836 5.02249 0.909839 3.52924 0.237878Z"/>
<path id="path6_fill" d="M 0.946135 2.62715C 1.0208 2.62715 0.79681 2.40317 0.946135 2.62715C 1.0208 2.77648 1.24478 2.9258 1.39411 3.07513C 1.76742 3.44844 2.06607 3.89641 2.36472 4.34439C 2.96202 5.16567 3.55932 6.06162 4.15661 6.8829C 5.12722 8.30149 7.36709 6.95757 6.39648 5.53898C 5.64986 4.49371 4.9779 3.44844 4.23128 2.40317C 3.63398 1.58188 2.73803 0.237961 1.6181 0.0139741C -0.0244737 -0.210013 -0.696435 2.3285 0.946135 2.62715Z"/>
<path id="path7_fill" d="M 0.0527734 1.6344C 0.650071 3.72494 0.650072 5.81548 0.57541 7.90603C 0.500748 9.62326 3.11393 9.62326 3.18859 7.90603C 3.26325 5.5915 3.18859 3.2023 2.59129 0.887774C 2.14332 -0.680134 -0.3952 -0.00817327 0.0527734 1.6344Z"/>
<path id="path8_fill" d="M 2.54751 8.96724C 4.11541 6.80203 4.86204 4.18886 5.31001 1.65034C 5.68332 0.00776848 3.14481 -0.738854 2.7715 0.978378C 2.32352 3.36757 1.72622 5.6821 0.232978 7.69798C -0.737631 9.0419 1.5769 10.3112 2.54751 8.96724Z"/>
<path id="path9_fill" d="M 2.23107 5.09451C 3.50033 4.04924 4.99358 3.37728 6.03885 1.95869C 6.48682 1.3614 6.11351 0.465448 5.59087 0.166799C 4.91891 -0.206512 4.24695 0.0921368 3.79898 0.614773C 2.97769 1.73471 1.48445 2.332 0.364517 3.22795C -0.158119 3.67593 -0.0834571 4.64653 0.364517 5.09451C 0.961815 5.61714 1.70844 5.54248 2.23107 5.09451Z"/>
<path id="path10_fill" d="M 1.56436 2.79324C 3.0576 2.19594 5.14815 3.31588 6.41741 3.98784C 7.91065 4.73446 9.25457 2.49459 7.76133 1.74797C 5.82011 0.77736 3.0576 -0.566561 0.892399 0.254724C -0.675509 0.852022 -0.00354843 3.39054 1.56436 2.79324Z"/>
<path id="path11_fill" d="M 1.65034 3.9198C 4.03954 3.54649 6.35406 3.09851 8.66859 2.57588C 10.3112 2.20256 9.63921 -0.335952 7.99664 0.0373589C 5.68211 0.559995 3.36757 1.00797 0.978376 1.38128C -0.738856 1.67993 0.00777311 4.14378 1.65034 3.9198Z"/>
<path id="path12_fill" d="M 0.0189333 3.11655C -0.130391 1.92196 0.616232 0.802022 1.81083 0.503373C 3.4534 0.130062 5.99191 -0.243251 7.11185 0.204723C 9.27705 1.02601 8.9784 4.90845 9.35172 6.84967C 11.0689 14.2412 11.4423 21.9314 12.7115 29.3977C 13.0848 31.5629 15.25 36.0426 11.8902 36.8639C 10.7703 37.1625 6.66387 36.9386 5.76793 36.3413C 4.34934 35.3707 4.34935 32.1602 4.34935 30.8162C 4.27468 27.9044 4.12536 25.1419 3.60272 22.2301C 2.8561 18.3477 2.03481 14.4652 1.51218 10.5081C 1.28819 8.5669 0.317582 5.28176 0.0189333 3.11655Z"/>
<path id="path13_fill" d="M 0.00434532 2.59451C -0.070317 1.39992 0.825631 0.354647 2.02023 0.205322C 3.73746 -0.0186644 6.27598 -0.167991 7.32125 0.354645C 9.41179 1.39992 8.73983 5.20769 8.96382 7.14891C 10.0091 14.6898 9.63578 22.3054 10.2331 29.9209C 10.3824 32.0861 12.1743 36.7152 8.73983 37.3125C 7.6199 37.4618 3.51347 36.9392 2.69219 36.2672C 1.42293 35.2219 1.64692 32.0114 1.79624 30.5929C 2.02023 27.681 2.09489 24.9185 1.79624 22.0067C 1.42293 18.0496 0.974955 14.0925 0.750968 10.1354C 0.82563 8.19418 0.0790076 4.75972 0.00434532 2.59451Z"/>
<path id="path14_fill" d="M 0.0333034 5.03146C 0.498934 7.22657 0.166344 13.0802 3.42576 13.0137C 5.28828 12.9472 7.21731 11.8164 9.01332 11.4172C 10.8093 11.0181 13.8692 11.3507 15.3326 10.0204C 16.663 8.7565 15.9313 6.49487 15.5987 5.03146C 15.3326 3.70109 15.4656 1.17338 14.0687 0.375155C 12.5388 -0.489587 9.81154 0.375154 8.28161 0.641228C 5.68739 1.10686 3.2262 1.9716 0.898047 3.23546C -0.432325 3.96716 0.765012 5.96272 2.09538 5.23101C 4.88917 3.70109 8.08206 2.83634 11.2084 2.50375C 13.5366 2.23767 12.6053 2.03812 12.9379 3.70109C 13.071 4.36627 13.204 4.96494 13.337 5.56361C 13.5366 6.42835 14.1352 7.42613 13.337 8.09131C 12.8049 8.55694 12.2062 8.49043 11.541 8.55694C 9.87806 8.7565 8.21509 9.02257 6.68516 9.55472C 5.95346 9.75428 4.68961 10.5525 3.9579 10.486C 3.2262 10.4195 3.69183 10.6855 3.29272 10.0204C 3.09316 9.68776 3.15968 8.88954 3.02664 8.49042C 2.76057 7.09353 2.56101 5.69664 2.22842 4.29975C 1.96235 2.96938 -0.29929 3.56805 0.0333034 5.03146Z"/>
<path id="path15_fill" d="M 1.63671 4.96885C 2.08468 4.44621 1.6367 4.74486 2.53265 4.59554C 3.50326 4.52087 4.39921 4.14756 5.36982 3.92358C 6.63908 3.62493 6.48975 3.62493 7.75901 3.40094C 8.9536 3.17696 10.0735 2.43033 11.1935 2.20635C 11.4921 2.13169 13.1347 1.9077 13.3587 1.98236C 14.5533 2.43033 15.0759 0.489113 13.8813 0.115802C 12.9854 -0.182847 11.7161 0.190466 11.4921 0.190466C 10.1482 0.33979 8.05766 1.98236 6.7884 1.45972C 6.48975 1.3104 6.04178 1.45972 5.81779 1.68371C 4.99651 2.43033 2.75664 2.35567 1.78603 2.57966C 1.0394 2.72898 0.815419 2.8783 0.218121 3.4756C -0.528502 4.52087 0.81542 5.93946 1.63671 4.96885Z"/>
<path id="path16_fill" d="M 1.81388 5.581C 2.41118 5.05837 3.08314 4.75972 3.68043 4.16242C 3.23246 4.16242 2.78449 4.16242 2.26185 4.16242C 2.41117 4.23708 2.48584 4.38641 2.63516 4.46107C 3.00847 4.83438 3.60577 4.83438 4.05375 4.46107C 4.05375 4.38641 4.05374 4.31175 3.97908 4.31175C 4.35239 4.53573 4.87503 4.46107 5.17368 4.16242C 5.54699 3.78911 5.77098 3.56513 6.06962 3.11715C 5.62165 3.26648 5.17368 3.34114 4.7257 3.49046C 4.87503 3.56513 5.02435 3.63978 5.17368 3.71445C 5.54699 3.93843 5.99496 3.86377 6.36827 3.56512L 6.29361 3.56512C 6.59226 3.71445 7.04023 3.56512 7.26422 3.34114C 7.48821 3.11715 7.71219 2.8185 8.01084 2.66917C 7.48821 2.59451 6.96557 2.51985 6.44294 2.44519C 6.5176 2.51985 6.5176 2.59451 6.59226 2.66917C 6.89091 3.11715 7.48821 3.26647 7.93618 3.04249C 8.30949 2.8185 8.53348 2.66918 8.90679 2.37053C 8.45882 2.37053 8.01085 2.37053 7.48821 2.37053C 7.63753 2.44519 7.7122 2.59451 7.86152 2.66917C 8.16017 2.96782 8.6828 3.11715 9.05612 2.8185C 9.42943 2.59452 9.72808 2.29587 10.1014 2.07188C 9.72808 1.99722 9.2801 1.99721 8.90679 1.92255C 9.05612 2.07188 9.13078 2.2212 9.2801 2.37053C 9.65342 2.8185 10.3254 2.66918 10.6987 2.37053C 10.7733 2.29587 10.9973 2.59451 11.4453 2.51985C 11.9679 2.37053 12.3413 2.14654 12.7892 1.69857C 12.3413 1.69857 11.8933 1.69857 11.3706 1.69857C 11.5946 1.84789 11.744 1.99721 11.9679 2.2212C 12.2666 2.44519 12.7892 2.66918 13.1625 2.37053C 13.5359 2.29587 13.8345 2.29586 14.2078 2.2212C 15.3277 2.74384 16.373 1.02661 15.1784 0.503973C 14.0585 0.055999 13.1625 -0.0933278 12.1173 0.653295C 12.4906 0.727957 12.9386 0.727955 13.3119 0.802617C 13.0879 0.653293 12.9386 0.50397 12.7146 0.279984C 12.2666 -0.0933278 11.744 -0.0933278 11.296 0.279984C 11.2213 0.354646 9.8774 0.429309 9.20544 0.951945C 9.65341 0.951945 10.1014 0.951945 10.624 0.951945C 10.4747 0.802621 10.4 0.653297 10.2507 0.503973C 10.0267 0.205324 9.35476 0.130658 9.05612 0.354645C 8.6828 0.578631 8.38415 0.877281 8.01084 1.10127C 8.38415 1.17593 8.83213 1.17593 9.20544 1.2506C 9.05611 1.17593 8.98145 1.02661 8.83213 0.951945C 8.38415 0.578634 7.86152 0.578634 7.41355 0.951945C 7.18956 1.10127 7.04023 1.17593 6.81625 1.32526C 7.26422 1.47458 7.7122 1.54924 8.16017 1.69857C 8.08551 1.62391 8.0855 1.54924 8.01084 1.47458C 7.63753 0.877281 6.96557 0.877284 6.44294 1.2506C 5.99496 1.54924 5.9203 1.6239 6.21895 1.47458C 5.9203 1.32525 5.47233 1.47458 5.24834 1.69857C 5.09902 1.84789 4.94969 1.99722 4.80037 2.07188C 5.17368 1.99722 5.62165 1.99721 5.99496 1.92255C 5.84564 1.84789 5.69632 1.77323 5.54699 1.69857C 5.02435 1.47458 4.50172 1.54924 4.20307 2.07188C 3.97908 2.29587 3.82975 2.51985 3.60577 2.74384C 3.97908 2.66918 4.42706 2.66918 4.80037 2.59451C 4.65104 2.51985 4.50172 2.44519 4.42706 2.37053C 4.12841 2.2212 3.75509 2.2212 3.45645 2.37053C 3.00847 2.59452 2.85914 2.74384 2.48583 3.11715C 2.93381 3.11715 3.38178 3.11715 3.90442 3.11715C 3.75509 3.04249 3.68043 2.89316 3.53111 2.8185C 3.15779 2.44519 2.5605 2.44519 2.11252 2.8185C 1.58989 3.34114 0.843263 3.71445 0.245965 4.23709C -0.57532 5.05837 0.843268 6.40229 1.81388 5.581Z"/>
<path id="path17_fill" d="M 1.51831 3.91068C 2.04094 3.61203 2.19027 3.23872 2.48892 2.79075C 1.96628 2.71608 1.44364 2.64143 0.921008 2.56676C 1.07033 2.79075 1.21966 3.01473 1.44365 3.23872C 1.7423 3.53737 2.33959 3.61203 2.63824 3.38805C 3.08622 3.0894 3.38486 2.71608 3.75818 2.41744C 3.38486 2.4921 2.93689 2.4921 2.56358 2.56676C 2.63824 2.64143 2.71291 2.64142 2.86223 2.71609C 3.16088 2.86541 3.60885 2.94007 3.83284 2.71609C 4.35547 2.34277 3.9075 2.56676 4.5048 2.4921C 5.1021 2.41743 5.55007 2.04413 6.0727 1.82014C 5.62473 1.67082 5.17676 1.59615 4.72879 1.44683C 5.47541 2.4921 6.22203 2.26811 7.34197 2.04412C 8.61123 1.82014 8.08859 -0.121081 6.81933 0.177568C 6.44602 0.25223 6.22203 0.177569 6.44602 0.476218C 6.14737 0.0282442 5.62473 -0.12108 5.1021 0.102907C 4.57946 0.326893 4.43013 0.401556 3.9075 0.476218C 3.45952 0.55088 3.23554 0.774865 2.86223 0.998851C 3.16088 0.998851 3.53419 0.998851 3.83284 0.998851C 3.75817 0.924189 3.60885 0.924191 3.53419 0.849529C 3.08621 0.625542 2.7129 0.700202 2.33959 0.998851C 2.04094 1.22284 1.89162 1.52149 1.59297 1.67081C 1.96628 1.74548 2.41425 1.74548 2.78756 1.82014C 2.7129 1.74548 2.63824 1.67082 2.56358 1.52149C 2.26493 1.07352 1.44365 0.774866 0.995675 1.2975C 0.84635 1.52149 0.622361 1.96946 0.398374 2.04412C -0.572235 2.79075 0.398374 4.50798 1.51831 3.91068Z"/>
<path id="path18_fill" d="M 0.0484288 2.31985C 0.665979 4.79005 0.66598 7.53472 1.00906 10.0735C 1.21491 11.4459 0.871831 14.2592 1.83246 15.4256C 2.65587 16.4549 4.23405 16.249 5.40053 16.1804C 8.5569 15.906 11.0957 15.906 13.9776 17.3469C 14.6638 17.69 15.5558 17.4155 15.7617 16.6607C 16.1734 15.0826 15.693 13.1613 15.5558 11.5831C 15.2813 9.31875 15.0069 7.0544 14.5952 4.79005C 14.2521 2.86879 13.8404 2.31985 11.9877 1.63368C 8.5569 0.329966 5.19468 -0.493433 1.558 0.329967C 0.0484293 0.673051 0.665981 3.00602 2.17555 2.66293C 4.92022 2.04538 8.83137 2.38847 11.3016 3.96665C 12.3994 4.65282 12.2622 5.47622 12.4681 6.77994C 12.8798 9.45599 14.1149 13.3671 13.4973 16.0432C 14.1149 15.8373 14.6638 15.5629 15.2813 15.357C 13.4287 14.465 11.7133 13.7788 9.65477 13.6416C 8.83137 13.573 4.71437 14.3278 4.09682 13.8475C 3.13618 13.0241 3.34203 9.1129 3.2048 7.67195C 2.99895 5.75069 2.93033 3.69218 2.51863 1.77092C 1.9697 0.192733 -0.363271 0.810283 0.0484288 2.31985Z"/>
<path id="path19_fill" d="M 1.88489 1.70131C 1.88489 1.70131 1.88489 1.77597 1.88489 1.70131C 1.36225 1.70131 0.914282 1.70131 0.466308 1.70131C 0.540971 1.77597 0.615632 1.85064 0.690294 1.9253C 1.06361 2.29861 1.73556 2.37328 2.10888 1.9253C 2.18354 1.85064 2.2582 1.70131 2.40753 1.62665C 1.95955 1.62665 1.51158 1.62665 0.988942 1.62665C 1.0636 1.70131 1.21293 1.77598 1.28759 1.9253C 1.73557 2.29861 2.2582 2.29861 2.70618 1.9253C 2.8555 1.85064 2.93016 1.70131 3.07949 1.62665C 2.63151 1.62665 2.18354 1.62665 1.6609 1.62665C 1.81023 1.77598 1.95955 1.9253 2.10888 2.07462C 2.55685 2.59726 3.30347 2.37327 3.67678 1.85063C 3.75145 1.70131 3.90077 1.55199 3.97543 1.40266C 3.4528 1.47732 2.93016 1.55199 2.40753 1.62665C 2.55685 1.77598 2.70617 1.9253 2.8555 2.07462C 3.07948 2.37327 3.75145 2.44793 4.0501 2.22395C 4.19942 2.14928 4.34874 1.99996 4.49807 1.9253C 4.12476 1.85064 3.67678 1.85064 3.30347 1.77597C 3.37814 1.85064 3.4528 1.99996 3.52746 2.07462C 3.82611 2.44794 4.57273 2.44794 4.94604 2.07462C 5.02071 1.9253 5.17003 1.85064 5.24469 1.70131C 4.87138 1.77597 4.42341 1.77597 4.0501 1.85063C 4.72206 2.22395 5.46868 2.14929 6.06598 2.44794C 6.36463 2.59726 6.73794 2.67192 7.03659 2.44794C 7.18591 2.29861 8.30584 2.14929 8.52983 2.14929C 8.15652 1.9253 7.70855 1.70131 7.33523 1.47732C 7.4099 1.62665 7.48456 1.77598 7.48456 1.9253C 7.70855 2.44794 8.3805 2.89591 8.90314 2.5226C 9.12713 2.37327 9.27645 2.29861 9.50044 2.14929C 9.05247 1.99996 8.60449 1.9253 8.15652 1.77597C 8.30584 1.99996 8.38051 2.14929 8.45517 2.37327C 8.75382 2.97057 9.5751 2.97057 10.0231 2.59726C 10.2471 2.44793 10.3964 2.22395 10.5457 2.07462C 10.0977 2.07462 9.64977 2.07462 9.12713 2.07462C 9.20179 2.22395 9.35112 2.29861 9.42578 2.44794C 9.72443 2.89591 10.3217 3.04523 10.7697 2.82125C 10.919 2.74658 11.0683 2.67192 11.143 2.59726C 10.695 2.44793 10.2471 2.37327 9.79909 2.22395C 9.87375 2.44793 9.94841 2.59726 10.0231 2.82125C 10.2471 3.34388 11.2177 3.49321 11.591 3.04524C 11.815 2.74659 12.039 2.44793 12.3376 2.22395C 11.815 2.07462 11.2177 1.9253 10.695 1.77597C 10.919 2.37327 11.0683 2.67192 11.5163 3.1199C 11.815 3.41855 12.3376 3.49321 12.7109 3.26922C 12.8602 3.11989 13.0842 3.04523 13.2336 2.89591C 12.7856 2.67192 12.2629 2.5226 11.815 2.29861C 11.9643 2.67192 12.039 2.97057 12.2629 3.34388C 12.4123 3.64253 12.7856 3.86652 13.0842 3.86652C 14.1295 3.7172 12.4869 3.56787 13.3082 3.86652C 13.4575 3.94118 13.6815 4.23983 13.9055 4.31449C 14.2042 4.46382 14.5775 4.53848 14.8761 4.31449C 15.0254 4.23983 15.1748 4.16517 15.2494 4.01584C 14.8015 3.86652 14.3535 3.79186 13.9055 3.64253C 14.0548 3.86652 14.2788 4.16517 14.4281 4.38915C 15.1748 5.43442 16.8173 4.46382 16.1454 3.41855C 15.9961 3.19456 15.7721 2.89591 15.6227 2.67192C 15.3241 2.22395 14.7268 1.99996 14.2788 2.29861C 14.6521 1.99996 15.0254 2.67192 14.2788 1.85063C 14.1295 1.77597 13.9802 1.70131 13.7562 1.70131C 13.3829 1.77597 13.3082 1.77597 13.6815 1.70131C 13.4575 1.17868 12.7856 0.730701 12.2629 1.10401C 12.1136 1.25334 11.8896 1.40266 11.7403 1.47732C 12.1136 1.55199 12.5616 1.55199 12.9349 1.62665C 12.8602 1.47733 12.7109 1.328 12.6363 1.17868C 12.3376 0.506719 11.591 0.133403 10.9937 0.730701C 10.695 0.954688 10.471 1.25334 10.2471 1.55199C 10.7697 1.62665 11.2923 1.70131 11.815 1.77597C 11.7403 1.55199 11.6656 1.40267 11.591 1.17868C 11.367 0.656043 10.695 0.581381 10.2471 0.805368C 10.0977 0.88003 9.94841 0.954689 9.87375 1.02935C 10.3217 1.17868 10.7697 1.25334 11.2177 1.40266C 10.9937 1.10401 10.919 0.880027 10.6204 0.65604C 10.2471 0.282729 9.5751 0.282729 9.20179 0.65604C 9.05247 0.880027 8.82848 1.02935 8.67916 1.17868C 9.20179 1.25334 9.72443 1.328 10.2471 1.40266C 10.1724 1.17868 10.0231 0.954692 9.94841 0.805368C 9.72443 0.357394 9.05247 0.133407 8.6045 0.432057C 8.38051 0.581381 8.23118 0.656043 8.0072 0.805368C 8.45517 1.02935 8.97781 1.17868 9.42578 1.40266C 9.35112 1.25334 9.27645 1.10401 9.27645 0.95469C 9.05246 0.432054 8.60449 0.133404 8.08186 0.282729C 7.26057 0.432053 5.84199 0.581379 5.09537 0.208067C 4.72205 -0.0159194 4.19942 -0.0159216 3.90077 0.35739C 3.82611 0.506714 3.67678 0.581376 3.60212 0.730701C 4.05009 0.730701 4.49807 0.730701 5.02071 0.730701C 4.94604 0.656039 4.87138 0.506719 4.79672 0.432057C 4.57273 0.133407 3.90077 0.0587418 3.60212 0.282729C 3.4528 0.357391 3.30347 0.506716 3.15415 0.581379C 3.52746 0.656041 3.97543 0.656039 4.34874 0.730701C 4.19942 0.581376 4.0501 0.432053 3.90077 0.282729C 3.37814 -0.165245 2.70618 -0.0159182 2.33286 0.506718C 2.2582 0.656042 2.10888 0.805366 2.03421 0.95469C 2.55685 0.880028 3.07949 0.805363 3.60212 0.730701C 3.4528 0.581376 3.37814 0.432053 3.15415 0.282729C 2.70618 -0.0905828 2.18354 -0.0905828 1.73556 0.282729C 1.58624 0.357391 1.51158 0.506716 1.36225 0.581379C 1.81023 0.581379 2.2582 0.581379 2.78084 0.581379C 2.70617 0.506716 2.55685 0.432053 2.48219 0.282729C 2.10888 -0.0159205 1.43692 -0.165245 1.06361 0.282729C 0.988944 0.357391 0.91428 0.506716 0.764956 0.581379C 1.21293 0.581379 1.6609 0.581379 2.18354 0.581379C 2.10888 0.506716 2.03422 0.432052 1.95955 0.35739C 1.58624 -0.0159216 0.914281 -0.0159216 0.540969 0.35739C 0.0929958 0.805363 -0.0563293 1.10401 0.018333 1.70131C 0.018333 2.97057 1.95955 2.97057 1.88489 1.70131Z"/>
<path id="path20_fill" d="M 1.74394 2.42208C 1.8186 2.27275 1.89326 2.04877 1.96792 1.89944C 1.37063 1.89944 0.847992 1.89944 0.250693 1.89944C 0.400018 2.12343 0.549343 2.34742 0.77333 2.57141C 1.2213 3.09404 1.96792 2.87005 2.34124 2.34742C 2.49056 2.19809 2.56522 1.97411 2.71455 1.75012C 2.11725 1.75012 1.59461 1.75012 0.997316 1.75012C 1.96793 3.16871 2.78921 2.72073 3.90915 1.75012C 3.38651 1.67546 2.86387 1.6008 2.34124 1.52613C 2.63989 2.04877 2.71455 2.12343 3.16252 2.49675C 3.53583 2.87006 4.20779 2.94472 4.5811 2.49675C 4.65577 2.42208 4.73043 2.34742 4.80509 2.27276C 4.50644 2.19809 4.13313 2.12343 3.83448 2.04877C 3.98381 2.12343 4.05847 2.27276 4.20779 2.34742C 4.73043 2.79539 5.32773 2.72073 5.7757 2.12343C 5.92503 1.97411 5.99969 1.82478 6.14901 1.60079C 5.62638 1.67546 5.10374 1.75012 4.5811 1.82478C 4.65577 1.97411 4.80509 2.12343 4.87975 2.34742C 5.1784 2.94472 5.99969 2.94472 6.44766 2.57141C 6.67165 2.42208 6.82098 2.19809 6.9703 2.04877C 6.44766 1.9741 5.92503 1.89945 5.40239 1.82478C 5.55172 2.04877 5.70104 2.34742 5.85036 2.57141C 6.29834 3.24337 7.11962 3.1687 7.56759 2.57141C 7.64226 2.49674 7.71692 2.42208 7.79158 2.27276C 7.26895 2.19809 6.74631 2.12343 6.22367 2.04877C 6.373 2.34742 6.52232 2.57141 6.82097 2.87006C 7.11962 3.24337 7.86624 3.24337 8.23956 2.87006C 8.38888 2.72073 8.5382 2.5714 8.68753 2.42208C 8.23956 2.19809 7.71692 2.04877 7.26894 1.82478C 7.34361 2.04877 7.49293 2.27276 7.56759 2.57141C 7.79158 3.1687 8.38888 3.46735 8.98618 3.1687C 9.28483 3.01938 9.50881 2.87005 9.7328 2.64607C 9.28483 2.64607 8.83685 2.64607 8.31422 2.64607C 8.68753 3.09404 9.35949 3.16871 9.7328 3.61668C 10.0315 3.91533 10.5541 3.98999 10.9274 3.766C 11.0767 3.69134 11.226 3.61668 11.3754 3.46735C 10.9274 3.31803 10.4794 3.24336 10.0315 3.09404C 10.1808 3.31803 10.3301 3.54201 10.5541 3.766C 11.3754 4.73661 12.794 3.31803 11.9727 2.34742C 11.898 2.27276 11.8233 2.1981 11.7487 2.12343C 11.45 1.67546 10.9274 1.45147 10.4048 1.75012C 10.2554 1.82478 10.1061 1.89944 9.95679 2.04877C 10.3301 2.12343 10.7781 2.12343 11.1514 2.1981C 10.7034 1.75012 10.1808 1.67546 9.7328 1.22748C 9.35949 0.854172 8.76219 0.854172 8.31422 1.22748C 8.16489 1.30215 8.09023 1.37681 7.94091 1.45147C 8.38888 1.67546 8.91152 1.82478 9.35949 2.04877C 9.28483 1.82478 9.21016 1.60079 9.06084 1.30214C 8.83685 0.779508 8.16489 0.331538 7.64226 0.70485C 7.26894 1.0035 7.11962 1.07816 6.82097 1.45147C 7.26895 1.45147 7.71692 1.45147 8.23956 1.45147C 8.16489 1.30215 8.09023 1.15282 8.01557 1.0035C 7.71692 0.480864 6.89563 0.331537 6.44766 0.779511C 6.29834 1.0035 6.07435 1.22749 5.92503 1.45147C 6.52233 1.45147 7.04496 1.45147 7.64226 1.45147C 7.49293 1.22749 7.34361 1.0035 7.19428 0.70485C 6.89563 0.182214 6.07435 0.032887 5.62638 0.480861C 5.47705 0.704847 5.32773 0.854175 5.10374 1.0035C 5.62638 1.07816 6.14901 1.15282 6.67165 1.22748C 6.44766 0.854172 6.373 0.630187 6.07435 0.331538C 5.62638 -0.191098 4.87975 0.107548 4.50644 0.555522C 4.35712 0.704846 4.28246 0.854174 4.13313 1.07816C 4.65577 1.0035 5.1784 0.928834 5.70104 0.854172C 4.80509 0.107549 4.05847 0.107552 3.23718 1.07816C 3.68516 1.07816 4.13313 1.07816 4.65577 1.07816C 4.50644 0.854174 4.35712 0.704847 4.20779 0.480861C 3.90914 -0.116438 3.08786 -0.116434 2.63989 0.256877C 2.19191 0.555526 2.26658 0.630187 2.78921 0.70485C 2.34124 0.107552 1.51995 0.0328893 1.07198 0.70485C 0.922656 0.928837 0.847993 1.07816 0.698669 1.30214C 1.2213 1.22748 1.74394 1.15282 2.26658 1.07816C 2.19191 1.0035 2.11725 0.854173 2.04259 0.779511C 1.66928 0.182213 0.698669 0.0328881 0.325357 0.779511C 0.250695 0.928835 0.176031 1.15282 0.101368 1.30214C -0.421268 2.5714 1.2213 3.54201 1.74394 2.42208Z"/>
</defs>
</svg>
