<svg width="149" height="187" viewBox="0 0 149 187" version="1.1" xmlns="http://www.w3.org/2000/svg" xmlns:xlink="http://www.w3.org/1999/xlink" xmlns:figma="http://www.figma.com/figma/ns">
<title>logo</title>
<desc>Created using Figma</desc>
<g id="Canvas" transform="translate(-8511 -1000)" figma:type="canvas">
<g id="logo" style="mix-blend-mode:normal;" figma:type="frame">
<g id="Group" style="mix-blend-mode:normal;" figma:type="frame">
<g id="XMLID 26" style="mix-blend-mode:normal;" figma:type="frame">
<g id="XMLID 66" style="mix-blend-mode:normal;" figma:type="vector">
<use xlink:href="#path0_fill" transform="translate(8520.24 1000.71)" fill="#FFFFFF" style="mix-blend-mode:normal;"/>
</g>
<g id="XMLID 63" style="mix-blend-mode:normal;" figma:type="vector">
<use xlink:href="#path1_fill" transform="translate(8541.63 1000.71)" fill="#FFFFFF" style="mix-blend-mode:normal;"/>
</g>
<g id="XMLID 61" style="mix-blend-mode:normal;" figma:type="vector">
<use xlink:href="#path2_fill" transform="translate(8553.77 1008.72)" fill="#FFFFFF" style="mix-blend-mode:normal;"/>
</g>
<g id="XMLID 59" style="mix-blend-mode:normal;" figma:type="vector">
<use xlink:href="#path3_fill" transform="translate(8591.85 1000.71)" fill="#FFFFFF" style="mix-blend-mode:normal;"/>
</g>
<g id="XMLID 56" style="mix-blend-mode:normal;" figma:type="vector">
<use xlink:href="#path4_fill" transform="translate(8613.25 1000.71)" fill="#FFFFFF" style="mix-blend-mode:normal;"/>
</g>
<g id="XMLID 54" style="mix-blend-mode:normal;" figma:type="vector">
<use xlink:href="#path5_fill" transform="translate(8625.39 1008.72)" fill="#FFFFFF" style="mix-blend-mode:normal;"/>
</g>
<g id="XMLID 51" style="mix-blend-mode:normal;" figma:type="vector">
<use xlink:href="#path6_fill" transform="translate(8522.47 1058.51)" fill="#FFFFFF" style="mix-blend-mode:normal;"/>
</g>
<g id="XMLID 48" style="mix-blend-mode:normal;" figma:type="vector">
<use xlink:href="#path7_fill" transform="translate(8548.57 1058.51)" fill="#FFFFFF" style="mix-blend-mode:normal;"/>
</g>
<g id="XMLID 46" style="mix-blend-mode:normal;" figma:type="vector">
<use xlink:href="#path8_fill" transform="translate(8576.08 1059)" fill="#FFFFFF" style="mix-blend-mode:normal;"/>
</g>
<g id="XMLID 44" style="mix-blend-mode:normal;" figma:type="vector">
<use xlink:href="#path9_fill" transform="translate(8520.24 1100.46)" fill="#FFFFFF" style="mix-blend-mode:normal;"/>
</g>
<g id="XMLID 36" style="mix-blend-mode:normal;" figma:type="vector">
<use xlink:href="#path10_fill" transform="translate(8541.63 1100.52)" fill="#FFFFFF" style="mix-blend-mode:normal;"/>
</g>
<g id="XMLID 34" style="mix-blend-mode:normal;" figma:type="vector">
<use xlink:href="#path11_fill" transform="translate(8553.77 1108.46)" fill="#FFFFFF" style="mix-blend-mode:normal;"/>
</g>
<g id="XMLID 32" style="mix-blend-mode:normal;" figma:type="vector">
<use xlink:href="#path12_fill" transform="translate(8591.85 1100.46)" fill="#FFFFFF" style="mix-blend-mode:normal;"/>
</g>
<g id="XMLID 29" style="mix-blend-mode:normal;" figma:type="vector">
<use xlink:href="#path13_fill" transform="translate(8613.25 1100.52)" fill="#FFFFFF" style="mix-blend-mode:normal;"/>
</g>
<g id="XMLID 27" style="mix-blend-mode:normal;" figma:type="vector">
<use xlink:href="#path14_fill" transform="translate(8625.39 1108.46)" fill="#FFFFFF" style="mix-blend-mode:normal;"/>
</g>
</g>
<g id="XMLID 15" style="mix-blend-mode:normal;" figma:type="frame">
<g id="XMLID 24" style="mix-blend-mode:normal;" figma:type="vector">
<use xlink:href="#path15_fill" transform="translate(8511 1170.26)" fill="#695395" style="mix-blend-mode:normal;"/>
</g>
<g id="XMLID 21" style="mix-blend-mode:normal;" figma:type="vector">
<use xlink:href="#path16_fill" transform="translate(8521.9 1153.52)" fill="#695395" style="mix-blend-mode:normal;"/>
</g>
<g id="XMLID 19" style="mix-blend-mode:normal;" figma:type="vector">
<use xlink:href="#path17_fill" transform="translate(8549.41 1154.01)" fill="#695395" style="mix-blend-mode:normal;"/>
</g>
<g id="XMLID 16" style="mix-blend-mode:normal;" figma:type="vector">
<use xlink:href="#path18_fill" transform="translate(8566.34 1153.6)" fill="#695395" style="mix-blend-mode:normal;"/>
</g>
</g>
</g>
</g>
</g>
<defs>
<path id="path0_fill" d="M 10.6557 25.2668C 11.1514 25.7622 12.06 26.01 13.299 26.01L 16.0249 26.01C 16.3553 26.01 16.6031 26.0925 16.8509 26.3402C 17.0987 26.5879 17.1814 26.8357 17.1814 27.166L 17.1814 30.0559C 17.1814 30.3862 17.0987 30.6339 16.8509 30.8817C 16.6031 31.1294 16.3553 31.2119 16.0249 31.2119L 12.7208 31.2119C 9.91232 31.2119 7.76465 30.5514 6.2778 29.1477C 4.79095 27.7439 4.04753 25.7622 4.04753 23.0374L 4.04753 13.7068L 1.15644 13.7068C 0.826026 13.7068 0.578218 13.6243 0.33041 13.3765C 0.0826023 13.1288 0 12.8811 0 12.5508L 0 9.66084C 0 9.33055 0.0826023 9.08284 0.33041 8.83513C 0.578218 8.58741 0.826026 8.50484 1.15644 8.50484L 4.13013 8.50484L 4.13013 1.156C 4.13013 0.825713 4.21273 0.577999 4.46054 0.330285C 4.70835 0.0825713 4.95616 0 5.28657 0L 8.67328 0C 9.00369 0 9.2515 0.0825713 9.4993 0.330285C 9.74711 0.577999 9.82971 0.825713 9.82971 1.156L 9.82971 8.3397L 15.5293 8.3397C 15.8597 8.3397 16.1075 8.42227 16.3553 8.66998C 16.6031 8.9177 16.6857 9.16541 16.6857 9.4957L 16.6857 12.3857C 16.6857 12.716 16.6031 12.9637 16.3553 13.2114C 16.1075 13.4591 15.8597 13.5417 15.5293 13.5417L 9.91232 13.5417L 9.91232 22.8722C 9.91232 24.0282 10.1601 24.7714 10.6557 25.2668Z"/>
<path id="path1_fill" d="M 5.78219 0.330285C 6.02999 0.577999 6.11259 0.825713 6.11259 1.156L 6.11259 4.62399C 6.11259 4.95428 6.02999 5.20199 5.78219 5.4497C 5.53438 5.69742 5.28657 5.77999 4.95616 5.77999L 1.15644 5.77999C 0.826026 5.77999 0.578218 5.69742 0.33041 5.4497C 0.082602 5.20199 1.26042e-06 4.95428 1.26042e-06 4.62399L 1.26042e-06 1.156C 1.26042e-06 0.825713 0.082602 0.577999 0.33041 0.330285C 0.578218 0.0825713 0.826026 0 1.15644 0L 4.95616 0C 5.28657 9.16725e-17 5.53438 0.0825713 5.78219 0.330285ZM 5.53438 30.9642C 5.28657 31.2119 5.03876 31.2945 4.70835 31.2945L 1.32164 31.2945C 0.991232 31.2945 0.743424 31.2119 0.495616 30.9642C 0.247808 30.7165 0.165204 30.4688 0.165204 30.1385L 0.165204 9.57827C 0.165204 9.24798 0.247808 9.00027 0.495616 8.75255C 0.743424 8.50484 0.991232 8.42227 1.32164 8.42227L 4.70835 8.42227C 5.03876 8.42227 5.28657 8.50484 5.53438 8.75255C 5.78218 9.00027 5.86479 9.24798 5.86479 9.57827L 5.86479 30.1385C 5.94739 30.4688 5.78218 30.7165 5.53438 30.9642Z"/>
<path id="path2_fill" d="M 8.17766 0.66057C 9.16889 0.165143 10.2427 -1.57492e-07 11.3166 -1.57492e-07C 14.7033 -1.57492e-07 17.1813 1.23857 18.6682 3.71571C 19.4116 2.55971 20.4855 1.65143 21.8071 0.990855C 23.1287 0.330285 24.4504 -1.57492e-07 25.772 -1.57492e-07C 28.9109 -1.57492e-07 31.1412 0.908284 32.5454 2.80742C 33.9497 4.70656 34.6105 7.1837 34.6105 10.3214L 34.6105 22.2117C 34.6105 22.542 34.5279 22.7897 34.2801 23.0374C 34.0323 23.2851 33.7845 23.3677 33.4541 23.3677L 30.0674 23.3677C 29.737 23.3677 29.4891 23.2851 29.2413 23.0374C 28.9935 22.7897 28.9109 22.542 28.9109 22.2117L 28.9109 10.4866C 28.9109 8.58741 28.5805 7.1837 27.8371 6.35799C 27.0937 5.53227 26.0198 5.11942 24.533 5.11942C 23.2939 5.11942 22.2201 5.53227 21.3941 6.35799C 20.5681 7.1837 20.155 8.50484 20.155 10.3214L 20.155 22.2117C 20.155 22.542 20.0724 22.7897 19.8246 23.0374C 19.5768 23.2851 19.329 23.3677 18.9986 23.3677L 15.6119 23.3677C 15.2815 23.3677 15.0337 23.2851 14.7859 23.0374C 14.5381 22.7897 14.4555 22.542 14.4555 22.2117L 14.4555 10.4866C 14.4555 8.58741 14.1251 7.1837 13.3816 6.35799C 12.6382 5.53227 11.5644 5.11942 10.0775 5.11942C 8.75588 5.11942 7.76465 5.53228 6.93862 6.44056C 6.1126 7.34884 5.69958 8.66998 5.69958 10.4866L 5.69958 22.1291C 5.69958 22.4594 5.61698 22.7071 5.36917 22.9548C 5.12136 23.2025 4.87356 23.2851 4.54314 23.2851L 1.15644 23.2851C 0.826026 23.2851 0.578219 23.2025 0.330411 22.9548C 0.0826026 22.7071 -1.26042e-06 22.4594 -1.26042e-06 22.1291L -1.26042e-06 1.56885C -1.26042e-06 1.23857 0.0826026 0.990856 0.330411 0.743142C 0.578219 0.495428 0.826026 0.412856 1.15644 0.412856L 4.54314 0.412856C 4.87356 0.412856 5.12136 0.495428 5.36917 0.743142C 5.61698 0.990856 5.69958 1.23857 5.69958 1.56885L 5.69958 2.55971C 6.2778 1.734 7.18643 1.07343 8.17766 0.66057Z"/>
<path id="path3_fill" d="M 10.6557 25.2668C 11.1514 25.7622 12.06 26.01 13.299 26.01L 16.0249 26.01C 16.3553 26.01 16.6031 26.0925 16.8509 26.3402C 17.0987 26.5879 17.1814 26.8357 17.1814 27.166L 17.1814 30.0559C 17.1814 30.3862 17.0987 30.6339 16.8509 30.8817C 16.6031 31.1294 16.3553 31.2119 16.0249 31.2119L 12.7208 31.2119C 9.91232 31.2119 7.76465 30.5514 6.2778 29.1477C 4.79096 27.7439 4.04753 25.7622 4.04753 23.0374L 4.04753 13.7068L 1.15644 13.7068C 0.826025 13.7068 0.578217 13.6243 0.330409 13.3765C 0.0826014 13.1288 -2.52083e-06 12.8811 -2.52083e-06 12.5508L -2.52083e-06 9.66084C -2.52083e-06 9.33055 0.0826014 9.08284 0.330409 8.83513C 0.578217 8.58741 0.826025 8.50484 1.15644 8.50484L 4.04753 8.50484L 4.04753 1.156C 4.04753 0.825713 4.13013 0.577999 4.37794 0.330285C 4.62575 0.0825713 4.87356 0 5.20397 0L 8.59067 0C 8.92109 0 9.16889 0.0825713 9.4167 0.330285C 9.66451 0.577999 9.74711 0.825713 9.74711 1.156L 9.74711 8.3397L 15.4467 8.3397C 15.7771 8.3397 16.0249 8.42227 16.2727 8.66998C 16.5205 8.9177 16.6031 9.16541 16.6031 9.4957L 16.6031 12.3857C 16.6031 12.716 16.5205 12.9637 16.2727 13.2114C 16.0249 13.4591 15.7771 13.5417 15.4467 13.5417L 9.74711 13.5417L 9.74711 22.8722C 9.91232 24.0282 10.1601 24.7714 10.6557 25.2668Z"/>
<path id="path4_fill" d="M 5.78219 0.330285C 6.03 0.577999 6.1126 0.825713 6.1126 1.156L 6.1126 4.62399C 6.1126 4.95428 6.03 5.20199 5.78219 5.4497C 5.53438 5.69742 5.28657 5.77999 4.95616 5.77999L 1.15644 5.77999C 0.826026 5.77999 0.578219 5.69742 0.330411 5.4497C 0.0826026 5.20199 5.04167e-06 4.95428 5.04167e-06 4.62399L 5.04167e-06 1.156C 5.04167e-06 0.825713 0.0826026 0.577999 0.330411 0.330285C 0.578219 0.0825713 0.826026 0 1.15644 0L 4.95616 0C 5.20397 9.16725e-17 5.53438 0.0825713 5.78219 0.330285ZM 5.53438 30.9642C 5.28657 31.2119 5.03876 31.2945 4.70835 31.2945L 1.32164 31.2945C 0.991229 31.2945 0.743421 31.2119 0.495613 30.9642C 0.247805 30.7165 0.165208 30.4688 0.165208 30.1385L 0.165208 9.57827C 0.165208 9.24798 0.247805 9.00027 0.495613 8.75255C 0.743421 8.50484 0.991229 8.42227 1.32164 8.42227L 4.70835 8.42227C 5.03876 8.42227 5.28657 8.50484 5.53438 8.75255C 5.78219 9.00027 5.86479 9.24798 5.86479 9.57827L 5.86479 30.1385C 5.86479 30.4688 5.78219 30.7165 5.53438 30.9642Z"/>
<path id="path5_fill" d="M 8.17766 0.66057C 9.16889 0.165143 10.2427 -1.57492e-07 11.3166 -1.57492e-07C 14.7033 -1.57492e-07 17.1813 1.23857 18.6682 3.71571C 19.4116 2.55971 20.4855 1.65143 21.8071 0.990855C 23.1287 0.330285 24.4504 -1.57492e-07 25.772 -1.57492e-07C 28.9109 -1.57492e-07 31.1412 0.908284 32.5454 2.80742C 33.9497 4.70656 34.6105 7.1837 34.6105 10.3214L 34.6105 22.2117C 34.6105 22.542 34.5279 22.7897 34.2801 23.0374C 34.0323 23.2851 33.7845 23.3677 33.4541 23.3677L 30.0674 23.3677C 29.737 23.3677 29.4891 23.2851 29.2413 23.0374C 28.9935 22.7897 28.9109 22.542 28.9109 22.2117L 28.9109 10.4866C 28.9109 8.58741 28.5805 7.1837 27.8371 6.35799C 27.0937 5.53227 26.0198 5.11942 24.533 5.11942C 23.2939 5.11942 22.2201 5.53227 21.3941 6.35799C 20.5681 7.1837 20.155 8.50484 20.155 10.3214L 20.155 22.2117C 20.155 22.542 20.0724 22.7897 19.8246 23.0374C 19.5768 23.2851 19.329 23.3677 18.9986 23.3677L 15.6119 23.3677C 15.2815 23.3677 15.0337 23.2851 14.7859 23.0374C 14.5381 22.7897 14.4555 22.542 14.4555 22.2117L 14.4555 10.4866C 14.4555 8.58741 14.1251 7.1837 13.3816 6.35799C 12.6382 5.53227 11.5644 5.11942 10.0775 5.11942C 8.75588 5.11942 7.76465 5.53228 6.93862 6.44056C 6.11259 7.34884 5.69958 8.66998 5.69958 10.4866L 5.69958 22.1291C 5.69958 22.4594 5.61698 22.7071 5.36917 22.9548C 5.12137 23.2025 4.87356 23.2851 4.54315 23.2851L 1.15643 23.2851C 0.826024 23.2851 0.578216 23.2025 0.330408 22.9548C 0.0826001 22.7071 2.52083e-06 22.4594 2.52083e-06 22.1291L 2.52083e-06 1.56885C 2.52083e-06 1.23857 0.0826001 0.990856 0.330408 0.743142C 0.578216 0.495428 0.826024 0.412856 1.15643 0.412856L 4.54315 0.412856C 4.87356 0.412856 5.12137 0.495428 5.36917 0.743142C 5.61698 0.990856 5.69958 1.23857 5.69958 1.56885L 5.69958 2.55971C 6.2778 1.734 7.10383 1.07343 8.17766 0.66057Z"/>
<path id="path6_fill" d="M 5.69958 30.6339C 5.69958 30.9642 5.61698 31.2119 5.36917 31.4597C 5.12137 31.7074 4.87356 31.7899 4.54315 31.7899L 1.15644 31.7899C 0.826027 31.7899 0.578219 31.7074 0.330411 31.4597C 0.082603 31.2119 6.30208e-07 30.9642 6.30208e-07 30.6339L 6.30208e-07 1.65143C 6.30208e-07 1.32114 0.082603 1.07343 0.330411 0.825713C 0.578219 0.577999 0.826027 0.495426 1.15644 0.495426L 4.54315 0.495426C 4.87356 0.495426 5.12137 0.577999 5.36917 0.825713C 5.61698 1.07343 5.69958 1.32114 5.69958 1.65143L 5.69958 2.64228C 6.2778 1.89914 7.18643 1.32114 8.26027 0.825713C 9.3341 0.330285 10.7383 0 12.3904 0C 14.2903 0 16.0249 0.495425 17.4292 1.40371C 18.916 2.39456 19.9898 3.63314 20.8159 5.20199C 21.6419 6.77085 22.1375 8.50484 22.2201 10.3214C 22.2201 10.6517 22.3027 11.1471 22.3027 11.8903C 22.3027 12.6334 22.3027 13.1288 22.2201 13.4591C 22.1375 15.2757 21.6419 17.0097 20.8159 18.5785C 19.9898 20.1474 18.8334 21.386 17.4292 22.3768C 15.9423 23.3677 14.2903 23.7805 12.3904 23.7805C 10.7383 23.7805 9.4167 23.5328 8.34287 22.9548C 7.26903 22.4594 6.3604 21.7988 5.69958 21.1382L 5.69958 30.6339ZM 15.0337 6.93599C 14.0425 5.86256 12.7208 5.28456 10.9862 5.28456C 9.4993 5.28456 8.26027 5.69742 7.35164 6.6057C 6.3604 7.51399 5.78219 8.66999 5.69958 10.2388C 5.69958 10.5691 5.61698 11.0646 5.61698 11.8903C 5.61698 12.716 5.61698 13.294 5.69958 13.5417C 5.86479 15.028 6.44301 16.2665 7.43424 17.1748C 8.42547 18.0831 9.66451 18.496 11.0688 18.496C 12.5556 18.496 13.7946 18.0831 14.7859 17.1748C 15.7771 16.2665 16.3553 14.9454 16.5205 13.1288C 16.6031 12.5508 16.6031 12.138 16.6031 11.8903C 16.5205 9.74341 16.0249 8.09199 15.0337 6.93599Z"/>
<path id="path7_fill" d="M 22.4679 11.9728C 22.4679 12.716 22.4679 13.4591 22.3853 14.2023C 22.2201 16.0188 21.7245 17.6702 20.7333 19.074C 19.8246 20.5602 18.503 21.7162 16.8509 22.542C 15.1989 23.3677 13.3816 23.7805 11.234 23.7805C 9.16889 23.7805 7.26903 23.3677 5.61698 22.542C 3.96493 21.7162 2.72589 20.5602 1.73466 19.074C 0.826028 17.5877 0.247809 15.9363 0.0826039 14.2023C 0.0826039 13.872 -6.30208e-07 13.1288 -6.30208e-07 11.9728C -6.30208e-07 10.8168 1.26165e-06 10.0737 0.0826039 9.74341C 0.247809 7.92684 0.743425 6.27542 1.73466 4.78914C 2.64329 3.30285 3.96493 2.14685 5.61698 1.32114C 7.26903 0.495426 9.08629 0 11.234 0C 13.299 0 15.1989 0.412855 16.8509 1.32114C 18.503 2.14685 19.742 3.30285 20.7333 4.78914C 21.6419 6.27542 22.2201 7.92684 22.3853 9.74341C 22.4679 10.4866 22.4679 11.2297 22.4679 11.9728ZM 7.68204 6.35799C 6.69081 7.10113 6.1126 8.25713 5.94739 9.90855C 5.94739 10.2388 5.86479 10.8994 5.86479 11.8903C 5.86479 12.8811 5.86479 13.5417 5.94739 13.872C 6.1126 15.5234 6.69081 16.762 7.68204 17.4225C 8.67328 18.1657 9.82971 18.496 11.3166 18.496C 12.8034 18.496 13.9598 18.1657 14.9511 17.4225C 15.9423 16.6794 16.5205 15.5234 16.6857 13.872C 16.7683 13.294 16.7683 12.6334 16.7683 11.8903C 16.7683 11.1471 16.7683 10.4866 16.6857 9.90855C 16.5205 8.25713 15.9423 7.01856 14.9511 6.35799C 13.9598 5.61484 12.8034 5.28456 11.3166 5.28456C 9.82971 5.28456 8.67328 5.69742 7.68204 6.35799Z"/>
<path id="path8_fill" d="M 6.85602 6.44056C 6.1126 7.1837 5.69958 8.50484 5.69958 10.2388L 5.69958 21.7162C 5.69958 22.0465 5.61698 22.2942 5.36917 22.542C 5.12136 22.7897 4.87355 22.8722 4.54314 22.8722L 1.15644 22.8722C 0.826026 22.8722 0.578219 22.7897 0.330411 22.542C 0.0826026 22.2942 -1.26042e-06 22.0465 -1.26042e-06 21.7162L -1.26042e-06 1.156C -1.26042e-06 0.825713 0.0826026 0.577999 0.330411 0.330285C 0.578219 0.0825713 0.826026 -1.25994e-06 1.15644 -1.25994e-06L 4.54314 -1.25994e-06C 4.87355 -1.25994e-06 5.12136 0.0825713 5.36917 0.330285C 5.61698 0.577999 5.69958 0.825713 5.69958 1.156L 5.69958 2.14685C 6.52561 1.40371 7.35163 0.82571 8.17766 0.495425C 9.00369 0.16514 10.1601 -1.25994e-06 11.5644 -1.25994e-06L 13.5468 -1.25994e-06C 13.8772 -1.25994e-06 14.1251 0.0825713 14.3729 0.330285C 14.6207 0.577999 14.7033 0.825713 14.7033 1.156L 14.7033 4.04599C 14.7033 4.37628 14.6207 4.62399 14.3729 4.87171C 14.1251 5.11942 13.8772 5.20199 13.5468 5.20199L 10.6557 5.20199C 8.92109 5.28456 7.68205 5.69742 6.85602 6.44056Z"/>
<path id="path9_fill" d="M 10.6557 25.2668C 11.1514 25.7622 12.06 26.01 13.299 26.01L 16.0249 26.01C 16.3553 26.01 16.6031 26.0925 16.8509 26.3402C 17.0987 26.5879 17.1814 26.8357 17.1814 27.1659L 17.1814 30.0559C 17.1814 30.3862 17.0987 30.6339 16.8509 30.8817C 16.6031 31.1294 16.3553 31.2119 16.0249 31.2119L 12.7208 31.2119C 9.91232 31.2119 7.76465 30.5514 6.2778 29.1477C 4.79095 27.744 4.04753 25.7622 4.04753 23.0374L 4.04753 13.5417L 1.15644 13.5417C 0.826026 13.5417 0.578218 13.4591 0.33041 13.2114C 0.0826023 12.9637 0 12.716 0 12.3857L 0 9.4957C 0 9.16541 0.0826023 8.9177 0.33041 8.66999C 0.578218 8.42227 0.826026 8.33969 1.15644 8.33969L 4.13013 8.33969L 4.13013 1.156C 4.13013 0.82571 4.21273 0.577996 4.46054 0.330283C 4.70835 0.0825687 4.95616 2.51988e-06 5.28657 2.51988e-06L 8.67328 2.51988e-06C 9.00369 2.51988e-06 9.2515 0.0825687 9.4993 0.330283C 9.74711 0.577996 9.82971 0.82571 9.82971 1.156L 9.82971 8.33969L 15.5293 8.33969C 15.8597 8.33969 16.1075 8.42227 16.3553 8.66999C 16.6031 8.9177 16.6857 9.16541 16.6857 9.4957L 16.6857 12.3857C 16.6857 12.716 16.6031 12.9637 16.3553 13.2114C 16.1075 13.4591 15.8597 13.5417 15.5293 13.5417L 9.91232 13.5417L 9.91232 22.8722C 9.91232 24.0282 10.1601 24.7714 10.6557 25.2668Z"/>
<path id="path10_fill" d="M 5.78219 0.351767C 6.02999 0.599481 6.11259 0.847194 6.11259 1.17748L 6.11259 4.64547C 6.11259 4.97576 6.02999 5.22347 5.78219 5.47118C 5.53438 5.7189 5.28657 5.80147 4.95616 5.80147L 1.15644 5.80147C 0.826026 5.80147 0.578218 5.7189 0.33041 5.47118C 0.082602 5.22347 1.26042e-06 4.97576 1.26042e-06 4.64547L 1.26042e-06 1.17748C 1.26042e-06 0.847194 0.082602 0.599481 0.33041 0.351767C 0.578218 0.104053 0.826026 0.0214805 1.15644 0.0214805L 4.95616 0.0214805C 5.28657 -0.0610908 5.53438 0.104053 5.78219 0.351767ZM 5.53438 30.9857C 5.28657 31.2334 5.03876 31.316 4.70835 31.316L 1.32164 31.316C 0.991232 31.316 0.743424 31.2334 0.495616 30.9857C 0.247808 30.738 0.165204 30.4903 0.165204 30.16L 0.165204 9.59975C 0.165204 9.26946 0.247808 9.02175 0.495616 8.77403C 0.743424 8.52632 0.991232 8.44375 1.32164 8.44375L 4.70835 8.44375C 5.03876 8.44375 5.28657 8.52632 5.53438 8.77403C 5.78218 9.02175 5.86479 9.26946 5.86479 9.59975L 5.86479 30.16C 5.94739 30.4077 5.78218 30.738 5.53438 30.9857Z"/>
<path id="path11_fill" d="M 8.17766 0.660573C 9.16889 0.165145 10.2427 0 11.3166 0C 14.7033 0 17.1813 1.23857 18.6682 3.71571C 19.4116 2.55971 20.4855 1.65142 21.8071 0.990853C 23.1287 0.330283 24.4504 0 25.772 0C 28.9109 0 31.1412 0.908279 32.5454 2.80742C 33.9497 4.70656 34.6105 7.1837 34.6105 10.3214L 34.6105 22.2117C 34.6105 22.542 34.5279 22.7897 34.2801 23.0374C 34.0323 23.2851 33.7845 23.3677 33.4541 23.3677L 30.0674 23.3677C 29.737 23.3677 29.4891 23.2851 29.2413 23.0374C 28.9935 22.7897 28.9109 22.542 28.9109 22.2117L 28.9109 10.5691C 28.9109 8.66999 28.5805 7.26627 27.8371 6.44056C 27.0937 5.61485 26.0198 5.20199 24.533 5.20199C 23.2939 5.20199 22.2201 5.61485 21.3941 6.44056C 20.5681 7.26627 20.155 8.58742 20.155 10.404L 20.155 22.2942C 20.155 22.6245 20.0724 22.8722 19.8246 23.12C 19.5768 23.3677 19.329 23.4502 18.9986 23.4502L 15.6119 23.4502C 15.2815 23.4502 15.0337 23.3677 14.7859 23.12C 14.5381 22.8722 14.4555 22.6245 14.4555 22.2942L 14.4555 10.6517C 14.4555 8.75255 14.1251 7.34884 13.3816 6.52313C 12.6382 5.69741 11.5644 5.28456 10.0775 5.28456C 8.75588 5.28456 7.76465 5.69742 6.93862 6.6057C 6.1126 7.51399 5.69958 8.83512 5.69958 10.6517L 5.69958 22.2942C 5.69958 22.6245 5.61698 22.8722 5.36917 23.12C 5.12136 23.3677 4.87356 23.4502 4.54314 23.4502L 1.15644 23.4502C 0.826026 23.4502 0.578219 23.3677 0.330411 23.12C 0.0826026 22.8722 -1.26042e-06 22.6245 -1.26042e-06 22.2942L -1.26042e-06 1.734C -1.26042e-06 1.40372 0.0826026 1.156 0.330411 0.908289C 0.578219 0.660575 0.826026 0.577996 1.15644 0.577996L 4.54314 0.577996C 4.87356 0.577996 5.12136 0.660575 5.36917 0.908289C 5.61698 1.156 5.69958 1.40372 5.69958 1.734L 5.69958 2.72485C 6.2778 1.734 7.18643 1.07343 8.17766 0.660573Z"/>
<path id="path12_fill" d="M 10.6557 25.2668C 11.1514 25.7622 12.06 26.01 13.299 26.01L 16.0249 26.01C 16.3553 26.01 16.6031 26.0925 16.8509 26.3402C 17.0987 26.5879 17.1814 26.8357 17.1814 27.1659L 17.1814 30.0559C 17.1814 30.3862 17.0987 30.6339 16.8509 30.8817C 16.6031 31.1294 16.3553 31.2119 16.0249 31.2119L 12.7208 31.2119C 9.91232 31.2119 7.76465 30.5514 6.2778 29.1477C 4.79096 27.744 4.04753 25.7622 4.04753 23.0374L 4.04753 13.5417L 1.15644 13.5417C 0.826025 13.5417 0.578217 13.4591 0.330409 13.2114C 0.0826014 12.9637 -2.52083e-06 12.716 -2.52083e-06 12.3857L -2.52083e-06 9.4957C -2.52083e-06 9.16541 0.0826014 8.9177 0.330409 8.66999C 0.578217 8.42227 0.826025 8.33969 1.15644 8.33969L 4.04753 8.33969L 4.04753 1.156C 4.04753 0.82571 4.13013 0.577996 4.37794 0.330283C 4.62575 0.0825687 4.87356 2.51988e-06 5.20397 2.51988e-06L 8.59067 2.51988e-06C 8.92109 2.51988e-06 9.16889 0.0825687 9.4167 0.330283C 9.66451 0.577996 9.74711 0.82571 9.74711 1.156L 9.74711 8.33969L 15.4467 8.33969C 15.7771 8.33969 16.0249 8.42227 16.2727 8.66999C 16.5205 8.9177 16.6031 9.16541 16.6031 9.4957L 16.6031 12.3857C 16.6031 12.716 16.5205 12.9637 16.2727 13.2114C 16.0249 13.4591 15.7771 13.5417 15.4467 13.5417L 9.74711 13.5417L 9.74711 22.8722C 9.91232 24.0282 10.1601 24.7714 10.6557 25.2668Z"/>
<path id="path13_fill" d="M 5.78219 0.351767C 6.03 0.599481 6.1126 0.847194 6.1126 1.17748L 6.1126 4.64547C 6.1126 4.97576 6.03 5.22347 5.78219 5.47118C 5.53438 5.7189 5.28657 5.80147 4.95616 5.80147L 1.15644 5.80147C 0.826026 5.80147 0.578219 5.7189 0.330411 5.47118C 0.0826026 5.22347 5.04167e-06 4.97576 5.04167e-06 4.64547L 5.04167e-06 1.17748C 5.04167e-06 0.847194 0.0826026 0.599481 0.330411 0.351767C 0.578219 0.104053 0.826026 0.0214805 1.15644 0.0214805L 4.95616 0.0214805C 5.20397 -0.0610908 5.53438 0.104053 5.78219 0.351767ZM 5.53438 30.9857C 5.28657 31.2334 5.03876 31.316 4.70835 31.316L 1.32164 31.316C 0.991229 31.316 0.743421 31.2334 0.495613 30.9857C 0.247805 30.738 0.165208 30.4903 0.165208 30.16L 0.165208 9.59975C 0.165208 9.26946 0.247805 9.02175 0.495613 8.77403C 0.743421 8.52632 0.991229 8.44375 1.32164 8.44375L 4.70835 8.44375C 5.03876 8.44375 5.28657 8.52632 5.53438 8.77403C 5.78219 9.02175 5.86479 9.26946 5.86479 9.59975L 5.86479 30.16C 5.86479 30.4077 5.78219 30.738 5.53438 30.9857Z"/>
<path id="path14_fill" d="M 8.17766 0.660573C 9.16889 0.165145 10.2427 0 11.3166 0C 14.7033 0 17.1813 1.23857 18.6682 3.71571C 19.4116 2.55971 20.4855 1.65142 21.8071 0.990853C 23.1287 0.330283 24.4504 0 25.772 0C 28.9109 0 31.1412 0.908279 32.5454 2.80742C 33.9497 4.70656 34.6105 7.1837 34.6105 10.3214L 34.6105 22.2117C 34.6105 22.542 34.5279 22.7897 34.2801 23.0374C 34.0323 23.2851 33.7845 23.3677 33.4541 23.3677L 30.0674 23.3677C 29.737 23.3677 29.4891 23.2851 29.2413 23.0374C 28.9935 22.7897 28.9109 22.542 28.9109 22.2117L 28.9109 10.5691C 28.9109 8.66999 28.5805 7.26627 27.8371 6.44056C 27.0937 5.61485 26.0198 5.20199 24.533 5.20199C 23.2939 5.20199 22.2201 5.61485 21.3941 6.44056C 20.5681 7.26627 20.155 8.58742 20.155 10.404L 20.155 22.2942C 20.155 22.6245 20.0724 22.8722 19.8246 23.12C 19.5768 23.3677 19.329 23.4502 18.9986 23.4502L 15.6119 23.4502C 15.2815 23.4502 15.0337 23.3677 14.7859 23.12C 14.5381 22.8722 14.4555 22.6245 14.4555 22.2942L 14.4555 10.6517C 14.4555 8.75255 14.1251 7.34884 13.3816 6.52313C 12.6382 5.69741 11.5644 5.28456 10.0775 5.28456C 8.75588 5.28456 7.76465 5.69742 6.93862 6.6057C 6.11259 7.51399 5.69958 8.83512 5.69958 10.6517L 5.69958 22.2942C 5.69958 22.6245 5.61698 22.8722 5.36917 23.12C 5.12137 23.3677 4.87356 23.4502 4.54315 23.4502L 1.15643 23.4502C 0.826024 23.4502 0.578216 23.3677 0.330408 23.12C 0.0826001 22.8722 2.52083e-06 22.6245 2.52083e-06 22.2942L 2.52083e-06 1.734C 2.52083e-06 1.40372 0.0826001 1.156 0.330408 0.908289C 0.578216 0.660575 0.826024 0.577996 1.15643 0.577996L 4.54315 0.577996C 4.87356 0.577996 5.12137 0.660575 5.36917 0.908289C 5.61698 1.156 5.69958 1.40372 5.69958 1.734L 5.69958 2.72485C 6.2778 1.734 7.10383 1.07343 8.17766 0.660573Z"/>
<path id="path15_fill" d="M 6.1126 0.351759C 6.3604 0.599473 6.44301 0.847187 6.44301 1.17747L 6.44301 5.47119C 6.44301 5.80147 6.3604 6.04919 6.1126 6.2969C 5.86479 6.54461 5.61698 6.62718 5.28657 6.62718L 1.15644 6.62718C 0.826026 6.62718 0.578219 6.54461 0.330411 6.2969C 0.0826026 6.04919 0 5.80147 0 5.47119L 0 1.17747C 0 0.847187 0.0826026 0.599473 0.330411 0.351759C 0.578219 0.104045 0.826026 0.0214792 1.15644 0.0214792L 5.28657 0.0214792C 5.61698 -0.061092 5.86479 0.104045 6.1126 0.351759Z"/>
<path id="path16_fill" d="M 22.4679 11.9728C 22.4679 12.716 22.4679 13.4591 22.3853 14.2023C 22.2201 16.0188 21.7245 17.6703 20.7333 19.074C 19.8246 20.5602 18.503 21.7162 16.8509 22.542C 15.1989 23.3677 13.3816 23.7805 11.234 23.7805C 9.16889 23.7805 7.26903 23.3677 5.61698 22.542C 3.96493 21.7162 2.72589 20.5602 1.73466 19.074C 0.826027 17.5877 0.247808 15.9362 0.0826028 14.2023C 0.0826028 13.872 -1.57552e-07 13.1288 -1.57552e-07 11.9728C -1.57552e-07 10.8168 1.53859e-07 10.0737 0.0826028 9.74341C 0.247808 7.92684 0.743424 6.27542 1.73466 4.78913C 2.64328 3.30285 3.96493 2.14686 5.61698 1.32114C 7.26903 0.49543 9.08629 -2.51988e-06 11.234 -2.51988e-06C 13.299 -2.51988e-06 15.1989 0.412859 16.8509 1.32114C 18.503 2.14686 19.742 3.30285 20.7333 4.78913C 21.6419 6.27542 22.2201 7.92684 22.3853 9.74341C 22.3853 10.404 22.4679 11.1471 22.4679 11.9728ZM 7.68205 6.35798C 6.69081 7.10112 6.1126 8.25712 5.94739 9.90855C 5.94739 10.2388 5.86479 10.8994 5.86479 11.8903C 5.86479 12.8811 5.86479 13.5417 5.94739 13.872C 6.1126 15.5234 6.69081 16.762 7.68205 17.4225C 8.67328 18.1657 9.82971 18.496 11.3166 18.496C 12.8034 18.496 13.9598 18.1657 14.9511 17.4225C 15.9423 16.6794 16.5205 15.5234 16.6857 13.872C 16.7683 13.294 16.7683 12.6334 16.7683 11.8903C 16.7683 11.1471 16.7683 10.4865 16.6857 9.90855C 16.5205 8.25712 15.9423 7.01855 14.9511 6.35798C 13.9598 5.61484 12.8034 5.28457 11.3166 5.28457C 9.82971 5.28457 8.67328 5.69741 7.68205 6.35798Z"/>
<path id="path17_fill" d="M 6.85602 6.44056C 6.1126 7.18371 5.69958 8.50484 5.69958 10.2388L 5.69958 21.7163C 5.69958 22.0465 5.61698 22.2943 5.36917 22.542C 5.12136 22.7897 4.87356 22.8722 4.54315 22.8722L 1.15644 22.8722C 0.826028 22.8722 0.57822 22.7897 0.330412 22.542C 0.0826039 22.2943 0 22.0465 0 21.7163L 0 1.156C 0 0.82571 0.0826039 0.577996 0.330412 0.330283C 0.57822 0.0825687 0.826028 2.51988e-06 1.15644 2.51988e-06L 4.54315 2.51988e-06C 4.87356 2.51988e-06 5.12136 0.0825687 5.36917 0.330283C 5.61698 0.577996 5.69958 0.82571 5.69958 1.156L 5.69958 2.14685C 6.52561 1.40371 7.35164 0.825708 8.17766 0.495423C 9.00369 0.165137 10.1601 2.51988e-06 11.5644 2.51988e-06L 13.5468 2.51988e-06C 13.8772 2.51988e-06 14.1251 0.0825687 14.3729 0.330283C 14.6207 0.577996 14.7033 0.82571 14.7033 1.156L 14.7033 4.04599C 14.7033 4.37628 14.6207 4.62399 14.3729 4.8717C 14.1251 5.11942 13.8772 5.202 13.5468 5.202L 10.6557 5.202C 8.92109 5.28457 7.59944 5.61485 6.85602 6.44056Z"/>
<path id="path18_fill" d="M 16.6031 21.1382C 16.0249 21.8814 15.1163 22.4594 14.0424 22.9548C 12.9686 23.4502 11.5644 23.7805 9.91232 23.7805C 8.01246 23.7805 6.2778 23.2851 4.87356 22.3768C 3.38671 21.386 2.31288 20.1474 1.48685 18.5785C 0.660824 17.0097 0.165204 15.2757 0.0826014 13.4591L -1.17385e-14 11.8903L 0.0826014 10.3214C 0.165204 8.50484 0.660824 6.77085 1.48685 5.202C 2.31288 3.63314 3.46931 2.39457 4.87356 1.40371C 6.36041 0.412856 8.01246 2.51988e-06 9.91232 2.51988e-06C 11.5644 2.51988e-06 12.886 0.247716 13.9598 0.825715C 15.0337 1.32114 15.9423 1.98171 16.6031 2.64228L 16.6031 1.65143C 16.6031 1.32114 16.6857 1.07343 16.9335 0.825715C 17.1814 0.578001 17.4292 0.495423 17.7596 0.495423L 21.1463 0.495423C 21.4767 0.495423 21.7245 0.578001 21.9723 0.825715C 22.2201 1.07343 22.3027 1.32114 22.3027 1.65143L 22.3027 22.3768C 22.3027 25.8448 21.3115 28.5697 19.329 30.3862C 17.3466 32.2028 14.6207 33.1111 11.0688 33.1111C 9.08629 33.1111 7.35164 32.7808 5.78219 32.1202C 4.21274 31.4597 2.89109 30.5514 1.98246 29.4779C 0.991233 28.4045 0.495616 27.2485 0.413013 26.0925C 0.413013 25.7622 0.495617 25.5145 0.743425 25.2668C 0.991233 25.0191 1.23904 24.9365 1.56945 24.9365L 4.54315 24.9365C 4.87356 24.9365 5.20397 25.0191 5.45177 25.2668C 5.69958 25.5145 6.02999 25.7622 6.2778 26.0925C 6.77342 26.6705 7.35163 27.0834 8.01245 27.3311C 8.67328 27.6614 9.66451 27.7439 10.9862 27.7439C 12.3904 27.7439 13.6294 27.3311 14.7859 26.4228C 15.9423 25.5145 16.4379 24.3585 16.4379 22.7071L 16.4379 21.1382L 16.6031 21.1382ZM 7.26904 16.8445C 8.26027 17.918 9.58191 18.496 11.234 18.496C 12.7208 18.496 13.9598 18.0831 14.8685 17.1748C 15.8597 16.2665 16.4379 15.1105 16.5205 13.5417C 16.6031 12.9637 16.6031 12.3857 16.6031 11.8903C 16.6031 11.3948 16.6031 10.8168 16.5205 10.2388C 16.3553 8.75255 15.7771 7.51399 14.7859 6.6057C 13.7946 5.69742 12.5556 5.28456 11.1514 5.28456C 9.66451 5.28456 8.42547 5.69742 7.43424 6.6057C 6.44301 7.51399 5.86479 8.83512 5.69958 10.6517C 5.69958 10.982 5.61698 11.3948 5.61698 11.8903C 5.78219 14.1197 6.2778 15.7711 7.26904 16.8445Z"/>
</defs>
</svg>
